<svg xmlns="http://www.w3.org/2000/svg" viewBox="0 0 242.84 222.91"><title>iconos-clientes</title><path d="M232.87,155.34l6-19.47-19.58,2.06a104.05,104.05,0,0,0,1.67-18.55,102.91,102.91,0,0,0-7.16-37.82c0-.73,0-1.46.05-2.2,0-1.55-.06-3.21-.17-5l.1-.07c1.9-1.42,1.85-7.93,1.28-9.09a2.66,2.66,0,0,0-1.48-1.35c-.09-.56-.19-1.16-.28-1.81-.45-3-.66-5.57-.8-7.24,0-.65-.1-1.19-.14-1.57-.35-3.13-5.72-14.75-5.78-14.86a3.31,3.31,0,0,0-2.26-1.81A13.8,13.8,0,0,0,199.91,33a10.43,10.43,0,0,0-4.56-1.11h-.18c-1.35,0-3.85.23-5.44,1.8a6.4,6.4,0,0,0-1.34,2,10.61,10.61,0,0,0-4.82,4.15,103.32,103.32,0,0,0-35.92-19.46,19.09,19.09,0,0,0,.3-3.61c0-2.46-.1-3.56-.15-4.29,0-.36,0-.62,0-.94a4.51,4.51,0,0,0-4.68-4.87H143c-2.14,0-4.84,1.05-8,3.15C133.73,6,132.55,3,129.28,1.35A13.42,13.42,0,0,0,122.94,0h-.88c-5,.18-12.23,1.81-18.8,4.26C96,7,87.38,12.77,87.23,20.05v.28A103.23,103.23,0,0,0,57,35.33c-1.36-2.25-4.08-3.19-6.33-3.31l-.77,0h-.39a4.09,4.09,0,0,0-.91.1,8.45,8.45,0,0,0-2.85-.48h-.54a5.55,5.55,0,0,0-1.2.11,4.41,4.41,0,0,0-.74.22A8.39,8.39,0,0,0,42,31.84h-.35a5.42,5.42,0,0,0-2,.38A6.68,6.68,0,0,0,38,32.3a15,15,0,0,0-6.69,3c-.26.2-.52.43-.8.69l-.94,0-.65.87L23,44.83C21,47.57,20.78,50.44,20.58,54a2.87,2.87,0,0,0-1.85,1.27,8,8,0,0,0,.18,6.91,2.2,2.2,0,0,0-.15.26c-.56,1.08-.93,8.05.92,9.61a2.49,2.49,0,0,0,1,.51c.11,2.55.29,5.51.5,8.61a103.47,103.47,0,0,0,.48,77.49L0,161l9.9,17.81L4.05,199.19l12-1.26v6l36.55-3.84a103.38,103.38,0,0,0,144.91-15.23l28.83-3,1-.11v-6l15.45-1.62ZM225.1,176v3.7l-25.57,2.69-3.12.32-3.31.35-24.18,2.54-4.6.49-4.28.45H160l-.15,0-.76.08-1.66.17-2.65.28-.24,0-49.22,5.17-2.59.27-7.55.79h0l-1.72.18-1.16.12-1.17.12-1.33.14h-.09l-9,1-24.08,2.53-3.3.35-3.11.32-31.78,3.34V169.87l8.17-.86,2.45-.26,2.52-.27,21.62-2.27h0l1.28-.14,1.33-.14h0l41.73-4.39,2.32-.24,6.31-.66,35.39-3.72,4.85-.51,2.25-.24,38.63-4.06h0l1.33-.14,1.3-.14h0l21.65-2.28,2.51-.26,2.45-.26,8.5-.89V176Zm-76.51,14,.26,0a77.26,77.26,0,0,1-21.33,6c-.15,0-.29,0-.44.06l-1.49.17-1.53.14c-.39,0-.79.07-1.19.09-.69.05-1.39.09-2.09.12l-.77,0c-.87,0-1.74.05-2.61.05s-1.72,0-2.57-.05l-.62,0c-.81,0-1.61-.08-2.41-.13h-.14c-.9-.07-1.79-.15-2.69-.25l-.26,0c-1-.12-2.06-.27-3.09-.42l-1.35-.23-1.61-.29-1.07-.22ZM12.37,178.49l-8.68-15.6,18.88-2c.06.14.12.29.19.44L16.1,167.8h0v27.82l-8.89.94ZM63,126.71a.07.07,0,0,0,0,0,3.43,3.43,0,0,0,.68-.91c3.69-.58,7.48-1.29,11.15-2l4.84-.89c-.45,2-.42,5.17,2.33,9a42.76,42.76,0,0,0,10,10c.61.6,2.69,3.74,4.16,9,.1.36.19.73.28,1.12s.16.74.23,1.13a27.93,27.93,0,0,1,.37,6.17l-42.82,4.39q-2-2.82-3.73-5.82c-.21-.36-.41-.73-.61-1.09s-.41-.72-.6-1.09a76.64,76.64,0,0,1-8-23.36c1.41.15,2.67.21,3.71.23h.1a19.52,19.52,0,0,0,4.56-.77,11,11,0,0,0,4.09-2.13,6.85,6.85,0,0,0,4,1.07c1.16,0,3.28-.2,4.5-1.58A3.16,3.16,0,0,0,63,126.71Zm86.45,20.86c.1-.39.2-.78.31-1.19s.21-.78.33-1.18a115.44,115.44,0,0,1,5.31-13.83c1.51-3.37,2.72-5.89,3.58-7.48,1.79-2.9,3.53-4.24,6-4.63a2.7,2.7,0,0,1,.55,0c1.78,0,5.54.47,9.64,1a3.8,3.8,0,0,0,2.65,2.65c.29.08.81.2,1.48.34a4.26,4.26,0,0,0,.76,1.31,7.55,7.55,0,0,0,5.36,2.31,4.85,4.85,0,0,0,2.76-.78,4.15,4.15,0,0,0,1.85.91l.24.07a9,9,0,0,0,3.85.88,76.55,76.55,0,0,1-2.56,12.92l-.36,1.19c-.12.4-.25.8-.38,1.19-.71,2.2-1.53,4.36-2.43,6.47l-39.84,4.19A28.23,28.23,0,0,1,149.48,147.57Zm77.89-2-8.57-5.25a.13.13,0,0,0,0-.06l16.83-1.77-5.24,17.07,8.82,16.59-11.83,1.24V145.59Zm-8.73-26.21a101.29,101.29,0,0,1-1.75,18.8c0,.29-.11.59-.17.88,0,.1,0,.2-.05.3-.08.39-.16.78-.25,1.17q-.69,3.22-1.57,6.38l-2.48.26L191,149.41c.13-.3.26-.6.38-.91h0c.15-.37.29-.74.43-1.11.55-1.46,1.06-2.93,1.53-4.43.12-.39.23-.79.35-1.19s.23-.79.34-1.19a79.11,79.11,0,0,0,2.43-12.75,11.23,11.23,0,0,0,1.93-.35c6.08-1.85,10.54-4.63,13.25-8.27,3.4-4.55,4.34-9.57,2.42-12.81-.06-.14-.18-.5-.26-.74-.15-.45-.28-.83-.42-1.15a7.11,7.11,0,0,0,1.35-3,5.54,5.54,0,0,0,.11-.56,4.7,4.7,0,0,0-1-3.83,3.71,3.71,0,0,0-.5-.47,6.17,6.17,0,0,0-.65-2.43c.06-.34.1-.7.15-1,.28-1.85.51-3.76.67-5.75A101.23,101.23,0,0,1,218.64,119.38ZM182.76,42.06c0,.23-.06.45-.07.68v0A16.34,16.34,0,0,0,181.45,44a7,7,0,0,0-1.89,3.9c0,.07,0,.13,0,.19a2.39,2.39,0,0,0-.13.21c-1.6,2.6-2,6.33.81,8.8a15.63,15.63,0,0,0,3.42,2.17c.21.11.42.2.64.29a20.63,20.63,0,0,0,2.06,3.22,2.58,2.58,0,0,0-.19.9c0,1.91,2,5.28,4.34,5.8.07,1.7.33,3.9,1.11,4.9-.66,2.12-1.57,4.6-2.52,7.19l-.72,2a80,80,0,0,0-37.66-36.37l.15-.56A33.06,33.06,0,0,1,152,42.77c3.5-6.13,4.07-11.29,1.75-15.41a12.69,12.69,0,0,0-2.72-3.31c-.14-.12-.29-.22-.43-.33A101,101,0,0,1,182.76,42.06Zm-32.91,8c.07-.2.15-.43.22-.67A77.72,77.72,0,0,1,172,64.83c-.36,0-.74.07-1.2.13-.68.08-1.53.19-2.58.24-.6,0-1.28.08-2,.15-1.18.1-2.52.21-4.1.24l-5.66.15-4,.1a14.91,14.91,0,0,0-9,3.67,51.4,51.4,0,0,1-1.19-9.3c.1-.68.21-1.27.34-1.82a16.48,16.48,0,0,1,1.28-3.73A6.91,6.91,0,0,0,149.85,50.09ZM175,68.78a3.5,3.5,0,0,0,.22-.55,79.55,79.55,0,0,1,5.06,6.35,26.91,26.91,0,0,0-5.64,1.15l-.94.25c-.93.24-2,.43-2.51.51-.83-.13-2.92-.46-4.43-.72C171,73.53,174.14,70.44,175,68.78Zm11.87,16.86a3.39,3.39,0,0,0-1.6,2.08c-.05.14-.09.28-.13.4-1.1-.15-2.53-.34-3.84-.49l-.53,0a4.61,4.61,0,0,0-3.4,1.51l-4.64-.5c4.84-2.3,9.38-6.86,10.49-9.6Q185.18,82.23,186.85,85.64ZM87,25.2c-.22,3.9-.55,8.1-.83,11.43-.89,1.2-3.76,5-8.83,10.93-.48.56-1,1.12-1.46,1.67-1,1.14-1.92,2.22-2.65,3.15a4.16,4.16,0,0,0-.73,1.4,80.18,80.18,0,0,0-25.65,28.9c-.77-2-1.67-4.2-2.69-6.63-.07-.16-.18-.39-.32-.68-.27-.6-.72-1.56-1.06-2.48.77-1.17,1.07-3.58,1.18-5.31a2.93,2.93,0,0,0,1.72-2.42,2.26,2.26,0,0,0,0-.26,10.11,10.11,0,0,0,4.09-4.38c.25-.3.49-.63.73-1a15.11,15.11,0,0,1,2.14-2.34c.62-.6,1.4-1.35,2.39-2.39.43-.45.84-.83,1.21-1.18C58,52,60,50.1,58.69,46.06c-.75-2.28-1.25-3.92-1.52-5l0-.17c.06-.48.13-.94.2-1.35a18.42,18.42,0,0,0,.23-1.89A100.85,100.85,0,0,1,87.15,22.73C87.11,23.53,87.08,24.36,87,25.2ZM72.46,57a5.46,5.46,0,0,0,2.82,3.75,15.39,15.39,0,0,0,5.51.78,31.2,31.2,0,0,0,3.15-.16,7,7,0,0,0,1.35,1.13,17.69,17.69,0,0,0,2.55,7.84,59.62,59.62,0,0,0,4.84,5.71c1,1.17,2.15,2.37,3.22,3.61.88,1,1.58,1.91,2.18,2.71H98c-1.92-.29-3.57-.55-4.36-.61l-.61,0c-5.19,0-14,4.56-19.8,10.15-.35,0-.73,0-1.16,0A68.92,68.92,0,0,0,58.73,93.5a3.49,3.49,0,0,0-2.82-.23c-1.84.58-3.1,1-3.86,1.16a6.12,6.12,0,0,1-.18-.67,3.42,3.42,0,0,0-2-2.45c-.49-1.74-1.12-3.62-1.87-5.71A77.86,77.86,0,0,1,72.39,56.67C72.42,56.78,72.43,56.89,72.46,57ZM22.85,70.67a6.56,6.56,0,0,1-1.7-.32c-.61-.51-.75-6.08-.37-6.83.16-.31.77-.37,1.43-.34.05-.39.06-.55.12-1.42a3,3,0,0,1-1.26-.45c-.91-.77-1-3.87-.4-4.81.18-.3,1-.39,2.07-.38.29-4.53.17-7.33,2.12-9.93,4.31-5.76,5.92-7.89,5.92-7.89l.77,0a7.61,7.61,0,0,1,1.17-1.11,12.76,12.76,0,0,1,5.71-2.63,5.08,5.08,0,0,1,1.61,0,3.18,3.18,0,0,1,1.65-.43,5.52,5.52,0,0,1,1.85.21,2.85,2.85,0,0,1,.93-.39,4.51,4.51,0,0,1,1.13-.06,5.55,5.55,0,0,1,2.88.65,2.17,2.17,0,0,1,1.09-.27h.26l.72,0c.86.05,3.57.41,4.61,2.4l.15.32a8.22,8.22,0,0,1-.22,2.57c-.08.49-.16,1-.22,1.63.08.36.19.79.33,1.27.33,1.2.81,2.7,1.33,4.29,1.07,3.29-.67,3.94-3.1,6.48s-3.6,3.34-4.76,5a12.79,12.79,0,0,1-.82,1.06C47,61.44,45.13,62.86,42.47,64a1.73,1.73,0,0,0-.67.51,10.82,10.82,0,0,0-1.44.23c-.69.16-1.22.33-1.22.33l1.13.3.35.09.64.18.1,0c.28.09.43.18.43.26,0,.88-.35,5.18-.85,5.67a2.17,2.17,0,0,1-.82.11c0,.18.07.35.12.5a28,28,0,0,0,1.85,4.71c1.25,3,2.41,5.81,3.41,8.52.18.5.37,1,.54,1.49s.38,1.09.56,1.63c.55,1.63,1,3.19,1.42,4.67.74,0,1.45.21,1.63,1,.71,3.21,2.05,2.62,2.05,2.62s1.45-.34,4.9-1.44a1.06,1.06,0,0,1,1.45.57c6.28-1.53,13.7-2.18,16-1.74,5.84-6.06,16-10.08,20.24-9.76,1.25.1,4.7.35,7.3.69l1.34.18a76.47,76.47,0,0,0-5.32-7.2c-3.05-3.53-6.31-6.79-7.9-9.12s-2.06-5.38-2.29-7.93a6.09,6.09,0,0,1-1.92-1.43c-.05-.17.61,0,1.77-.91v-.2c-6.93,1.35-10.66.28-11,.1a3.72,3.72,0,0,1-1.67-3.51,2.51,2.51,0,0,1,.49-1.39l.57-.71c.68-.82,1.49-1.75,2.33-2.7L79.1,49c6.23-7.29,9.27-11.49,9.29-11.53l0,0c.32-3.79.7-8.65.92-13,0-.83.08-1.65.11-2.44s0-1.33.06-1.95c0-.15,0-.29,0-.44C90,14.18,96.93,9.07,104.06,6.41c6.7-2.51,13.54-4,18.07-4.12a11.7,11.7,0,0,1,6.14,1.1c2.31,1.14,3.26,3.16,4.51,7.26.34,1.12.6,2.07.83,2.84,4.43-3.38,7.53-4.62,9.42-4.58,1,0,2.23.09,2.46,2.57a50.59,50.59,0,0,1,.18,5.29,18,18,0,0,1-.2,2.94,10.47,10.47,0,0,1-.6,2.19,6.13,6.13,0,0,1-.59,1.12l-.66.94-.84,1.18.15.35c.21-.11.43-.21.64-.3a10.94,10.94,0,0,1,2.06-.66,4.42,4.42,0,0,1,3.93,1.23l.07.06c5.83,5.2,2.49,12.22.43,15.82a28.62,28.62,0,0,0-1.46,4.61c-.1.38-.2.74-.29,1.1s-.22.78-.33,1.13-.19.6-.27.85a4.6,4.6,0,0,1-4.56,3.05,3,3,0,0,1-.49-.1,16.36,16.36,0,0,0-2.26,5.59c-.17.72-.3,1.47-.4,2.22a50.79,50.79,0,0,0,1.91,12.43,4.46,4.46,0,0,1,2-.37c1.18-1.17,4.48-4,8.54-4,2.13,0,5.67-.16,9.65-.24,2.65-.06,4.66-.33,6.18-.4,3-.13,4.45-.74,4.72-.07s-4.86,6.32-12,8.19q-1.2.31-2.4.57l.18,0a10.66,10.66,0,0,1,1.49.38,36.24,36.24,0,0,0,4.71,1.2c1.47.28,6.17,1,6.17,1s1.67-.25,3.1-.62c2.73-.72,6.2-1.73,6.82-1.17,1.63,1.48-8.41,11.74-14.83,10.69l-.21,0c1.05.83,2.24,1.8,3.69,2.93,1.73.2,5.1.5,8.68.94A2.71,2.71,0,0,1,181,89.89c2.53.3,5.62.74,5.62.74a17.51,17.51,0,0,0,.79-2.26,1.18,1.18,0,0,1,.39-.65A1.56,1.56,0,0,1,189,87.5l.36,0,.39-1.12c1.67-4.72,3.66-9.76,4.61-13.34a3.16,3.16,0,0,1-1-.14c-.47-.48-.63-4.44-.61-5.26,0-.13.45-.26,1.2-.39l-.09-1a7.39,7.39,0,0,1-2.8,1c-1.12-.13-2.65-2.52-2.63-3.55,0-.25.36-.59.9-1-.29-.3-.58-.62-.87-1a18.65,18.65,0,0,1-2.55-4.09,6.09,6.09,0,0,1-1.25-.46,13.67,13.67,0,0,1-2.92-1.84c-1.8-1.59-1.49-4.12-.39-5.91a2.86,2.86,0,0,1,.51-.62,2.32,2.32,0,0,1,0-.74,4.74,4.74,0,0,1,1.33-2.63,15,15,0,0,1,1.13-1.13l.31-.28.15-.31.21-.4v-.54a4.31,4.31,0,0,1,.38-1.54c1-2.13,3.49-3.35,4.08-3.62l.73-.32a5.26,5.26,0,0,1,1.17-2c1.13-1.11,3.34-1.16,4-1.14a8.17,8.17,0,0,1,3.56.85,11.84,11.84,0,0,1,4.28,3.83,1.07,1.07,0,0,1,1.38.56c.6,1.22,5.28,11.67,5.55,14.09.15,1.37.32,4.62.95,8.89.19,1.34.39,2.52.53,3.45.67,0,1.29.07,1.43.37.35.7,0,5.83-.59,6.28a4.2,4.2,0,0,1-1.15.18c.09,1.14.17,2.31.23,3.48s.07,2.14.07,3.2c0,.9,0,1.77,0,2.63q-.07,3.08-.32,5.84c-.21,2.49-.52,4.79-.91,6.91a4.11,4.11,0,0,1,.74,3.4l.38.09c2.54.65.64,6.11-1.4,5.69l-.3-.06c0,.18-.1.37-.16.57a1.53,1.53,0,0,1,1.51.51c.31.38.76,2.14,1,2.58,1.35,2.22.73,6.32-2.26,10.34-3.57,4.78-9.92,6.79-12.09,7.44a7.54,7.54,0,0,1-1.06.21c-.36,0-.77.09-1.16.12a10.6,10.6,0,0,1-1.09,0h-.06a7,7,0,0,1-3.1-.68c-.49-.23-1.19-.25-1.53-.62a3.94,3.94,0,0,1-1-1.23,2.83,2.83,0,0,1-.16-.95l-.88-.07c-.07.41-.13.78-.2,1.11-.56,2.72-6.48.81-6.13-1.38,0-.16,0-.33.08-.52-1.57-.28-2.68-.53-3-.63-1.44-.4-1.19-2.43-1.19-2.43l.82,0c-6.26-.8-11.78-1.55-13.43-1.29-3.44.54-5.66,2.58-7.6,5.74-.74,1.36-1.87,3.65-3.68,7.7-1.31,2.91-2.4,5.54-3.31,7.93-1.22,2.72-2.37,5.19-3.29,7.17-.2.43-.4.83-.57,1.21s-.41.85-.58,1.22l-1.12,2.32a30.29,30.29,0,0,0,2-2.41c.29-.39.59-.8.89-1.25v0c-.1.4-.2.8-.28,1.18a28.79,28.79,0,0,0-.8,6.29l-5.21.55-35.82,3.77-5.92.76a29.55,29.55,0,0,0-.18-6.18c-.06-.39-.14-.76-.22-1.13s-.17-.76-.27-1.13a48,48,0,0,0-3.05-8,7.77,7.77,0,0,0,1.59.2c.47,0,.72-.08.64-.25a4.47,4.47,0,0,0-1.26-.85c-1.06-.6-2.68-1.48-4.58-2.77a41.35,41.35,0,0,1-8.14-8.47c-3.74-5.26-1.44-8.63-1.44-8.63l1.72-2.17c-6.48,1-14.79,2.78-22.38,3.93.08.32.22,1.32-1.27,1.78.12.54.21,1,.26,1.46.26,2.06-5.8,2-6.1.35-.05-.24-.11-.55-.17-.88l-.4.05-.13.23c-.29.52-1.09.77-1.59,1.2A8.48,8.48,0,0,1,49,129.72a17.23,17.23,0,0,1-3.91.67c-.88,0-2.35-.08-4.12-.29l-1.18-.17-1.19-.21a23,23,0,0,1-9.82-4.08c-4.59-3.61-6.06-8-5.15-10.91.13-.43.21-1.44.36-2.14q-.14-1.09-.24-2.22l-.37,0c-2.64.29-2.76-5.78-.66-6.11l.67-.1q0-1.11-.06-2.1a4,4,0,0,1,1.39-3.25c0-.46-.06-.92-.09-1.4-.22-3.31-.48-6.85-.74-10.35-.13-1.88-.27-3.74-.39-5.55s-.23-3.4-.33-5C23,74.41,22.9,72.41,22.85,70.67Zm-6.7,48.71A101.2,101.2,0,0,1,21.54,86.7c0,.47.07.93.11,1.4.12,1.66.24,3.32.36,5s.21,3.07.31,4.55l0,.41A6.33,6.33,0,0,0,21,102.16v.39a4.12,4.12,0,0,0-1.4,1.62,6.89,6.89,0,0,0-.65,3.68c0,.21.05.42.08.62a4.91,4.91,0,0,0,2.59,3.91s0,.08,0,.12c0,.3-.09.61-.13.88s-.09.59-.11.68c-1.31,4.26,1,9.51,5.92,13.37a25.82,25.82,0,0,0,11.58,4.67,78.93,78.93,0,0,0,5.69,19.23h0q1.05,2.4,2.27,4.71l.57,1.09c.2.37.4.73.61,1.09s.3.56.46.84q1.48,2.56,3.13,5L30.3,166.31l-2.49.26q-1.53-2.91-2.88-5.91c-.15-.33-.29-.66-.44-1l0-.1c-.16-.37-.32-.74-.47-1.11A100.81,100.81,0,0,1,16.15,119.38ZM117.4,220.62a100.77,100.77,0,0,1-61.56-20.87l3.42-.36,25.49-2.68,7-.74,3.13-.33h0a79.1,79.1,0,0,0,13.51,2.74l.26,0c.92.1,1.85.18,2.77.25h.14c.82.06,1.65.11,2.48.14l.64,0c.88,0,1.76,0,2.65,0l1.45,0c.41,0,.83,0,1.24,0l.73,0c.79,0,1.59-.08,2.38-.14l.47,0c.78-.06,1.55-.14,2.33-.22l1-.12,1.64-.22,1.85-.28,1.18-.21,1.55-.29.55-.12c1.32-.28,2.63-.58,3.93-.92a79.29,79.29,0,0,0,17.54-7l4.41-.46,5.64-.59,25.58-2.69,3.43-.36A101,101,0,0,1,117.4,220.62Z" style="fill:#fff"/><path d="M152.31,84.15l.94-.09c-2.32-.86-4.3-1.69-5.69-2.29a4.87,4.87,0,0,1-.78.7,5.86,5.86,0,0,0,2.3,1.48A7.59,7.59,0,0,0,152.31,84.15Z" style="fill:#fff"/><path d="M208.45,80.65c0-1,.08-2,.1-3,0-.8,0-1.6,0-2.39s0-1.61-.09-2.39l-1.08,0-2.58.1c-2.54.08-5.26.13-7.41.13l.22,4.29a15.48,15.48,0,0,1-1.08-1.68c-.78,2.79-2.25,7.86-3.79,12.33,0,.12-.08.24-.13.36,4.9,1.48,11.16,3.69,14.52,4.89A97.75,97.75,0,0,0,208.45,80.65Z" style="fill:#fff"/><path d="M161.31,110.11c3-6.17,2.76-11.18,3.19-11.44.59-.34,1.67,8.46-1.77,15a13.65,13.65,0,0,1,3.78-.38c4.8.22,9.27,1.09,15.28,2a46.05,46.05,0,0,0,2-8.86c-3.14-.81-6.05-2.69-5-2.65.88,0,2.82.32,5.25.42,0-.24,0-.46.08-.7.39-3.89-.23-6.44-1.06-8.08-4.58-.73-9.77-1.13-12.52-1.31.31,1.52.22,2.75,0,2.49s-1.13-1.52-2.15-2.81c-.95-1-5.13-5-9.59-6.69,1,1.56,2.07,4.34,2.57,9.26A59.43,59.43,0,0,1,161.31,110.11Z" style="fill:#fff"/><path d="M191,97c0,.18.08.36.11.53a18.92,18.92,0,0,1,.4,5c0,.9.68,1.39,1.63,1.52a4.58,4.58,0,0,0,1.17,0,6.44,6.44,0,0,0,1.12-.25,4,4,0,0,0,2.51-2,2.12,2.12,0,0,0,.15-1.23,7.94,7.94,0,0,0-.75-2.29,6.77,6.77,0,0,0-2.23-2.65,10,10,0,0,0-3.42-1.48,6.59,6.59,0,0,0-.89-.15l-.4,0h-.23s0,0,.12.27S190.58,95.39,191,97Z" style="fill:#fff"/><path d="M187.12,55a19.9,19.9,0,0,1-4.35-4.15c-.39.81-.76,2.21.22,3.08a12.6,12.6,0,0,0,2.51,1.55,3.86,3.86,0,0,0,1,.36,5.33,5.33,0,0,0,1.69,0,1.18,1.18,0,0,0,.5-.16,4.71,4.71,0,0,1-1.36-.62Z" style="fill:#fff"/><path d="M192.48,51.46c-.3,0-.62,0-.93-.08l-.4-.08-.32-.07a5.06,5.06,0,0,1-.72.76l-.18.15c-.47.37-.92.61-1,.47a3,3,0,0,1,.38-1.12.54.54,0,0,0,.05-.11l.22-.45a5.44,5.44,0,0,1-1.32-.54,2.46,2.46,0,0,1-.65-.54,6.63,6.63,0,0,1-1.13-1.24,8.06,8.06,0,0,1-1.2-2.55c-.23.22-.48.47-.72.73a3.94,3.94,0,0,0-.74,1.1,1.53,1.53,0,0,0-.13.45,2.41,2.41,0,0,0,.6,1.42,20.35,20.35,0,0,0,3.92,3.7,2.94,2.94,0,0,0,.61.32l.35.11a6.47,6.47,0,0,0,1.93.2l.56,0c.34,0,.66-.06.94-.1a11.47,11.47,0,0,1,.64-1.65c.14-.29.29-.58.46-.86C193.49,51.46,193,51.48,192.48,51.46Z" style="fill:#fff"/><path d="M187.32,46.16l.16.39.11-.14.12-.15a10.53,10.53,0,0,1,1.44-1.33l0,0v0a37.82,37.82,0,0,1,.38-5.08c-.88.49-2.46,1.55-2.69,2.92a2,2,0,0,0,0,.24v.37a7.91,7.91,0,0,0,.4,2.63C187.27,46,187.29,46.08,187.32,46.16Z" style="fill:#fff"/><path d="M195.87,41a12.29,12.29,0,0,1,.21-2,4.87,4.87,0,0,1,.95,1.6l.33,0c.74,0,1.62.66,2.85,1.93l1.52-1.17A8.47,8.47,0,0,0,197.88,37c-2-1-4.55-.57-5-.1a2.87,2.87,0,0,0-.6,1,17.82,17.82,0,0,0-.86,5.52l.31-.19C192.8,42.57,194.17,41.83,195.87,41Z" style="fill:#fff"/><path d="M195.79,61a4.36,4.36,0,0,0,2.12.93,5.55,5.55,0,0,0,2.14-.09l.55-.15.41-.16a7.4,7.4,0,0,0,1.6-.88,8.26,8.26,0,0,0,1.83-1.77c2.24-2.92,2.33-6.71.3-8.74a26.11,26.11,0,0,1-4.5-4.74c-.28-.36-.55-.69-.8-1s-.46-.57-.67-.81l-.15-.17c0,.08,0,.16,0,.25a2,2,0,0,1-.43,1.66c-.16.08-.24-.43-.33-1.07a6.5,6.5,0,0,0-.42-1.76.47.47,0,0,0-.31,0c-.66.32-2.85,1.35-4.8,2.46a1.16,1.16,0,0,1,.92.83.94.94,0,0,1,0,.64,2.11,2.11,0,0,1-.92.78,3.17,3.17,0,0,1-.56.25,5.27,5.27,0,0,1-.56.19,4.86,4.86,0,0,1-1.05.16.8.8,0,0,1-.8-.7l0,.06-.11.15v0a.74.74,0,0,0-.17.51v0a1.9,1.9,0,0,0,.15.51c.15.33.45.55,1.08.74a4.9,4.9,0,0,0,.59.16l.18,0c.4.08.81.13,1.2.17s1,.05,1.37.05h.13c.85,0,1.51-.09,1.72-.11h0c.95-.18,1.55-.46,1.84-.43s-.33.88-1.23,1.51a7.86,7.86,0,0,0,.42,2.18,15.5,15.5,0,0,0,1.2,2.71,9.23,9.23,0,0,1-2.17-1.73A6.14,6.14,0,0,1,195,53c-.16.29-.3.58-.43.87a7.71,7.71,0,0,0-.52,1.81,5.82,5.82,0,0,0-.1,1.09A5.18,5.18,0,0,0,195.79,61Z" style="fill:#fff"/><path d="M124.52,86.93a8.2,8.2,0,0,1,1,.63c8.49,0,9.78-1.21,9.78-1.21s.28,1.05-1.49,2.1A15.6,15.6,0,0,1,128,90.08c.49.6,1,1.29,1.55,2.1a21.83,21.83,0,0,0,5.83,5.8c3.41,2.1,6,2.5,8.42,2.12l.29,0c.07.81.12,1.68.15,2.6,0,.58,0,1.17,0,1.79a60,60,0,0,1-1.05,11.13c-.21,1.06-.44,2.14-.71,3.25-2.53,10.17-5.7,16-7.2,22.45a18.47,18.47,0,0,0-.49,5.53q0,.62.12,1.14c.07.42.15.79.23,1.13a7.67,7.67,0,0,0,.75,2,8.31,8.31,0,0,1-.21-2.06c0-.34,0-.72,0-1.15s.05-.75.1-1.16a29.5,29.5,0,0,1,1.34-5.92c2.46-7.58,4.12-11.24,6-16.93.19-.6.39-1.21.6-1.86a45.76,45.76,0,0,0,2-11.18c0-.24,0-.49,0-.76a34.46,34.46,0,0,0-.27-5.83c-.07-.58-.15-1.17-.25-1.74-.14-.88-.3-1.74-.48-2.56-.24-1.17-.51-2.26-.78-3.26s-.49-1.75-.72-2.48c-.6-1.9-1.06-3.08-1.06-3.08a24.22,24.22,0,0,1,1.89,3.41,40.13,40.13,0,0,1,2,5l.64-.22.08,0c2.73-1,3.46-4.93,2-9.7a13.71,13.71,0,0,0-.94-2.33,13,13,0,0,1-2.94-.44,1.32,1.32,0,0,1-.3-.09l-.23-.07c-1.61-.58-1.88-1.33-1.88-1.33a3.68,3.68,0,0,0,.49.1,15.19,15.19,0,0,0,3.51,0,9.17,9.17,0,0,1-3.14-2.32L143.2,83c-.31,0-1.9.25-10.53,1.91C129.7,85.5,127,86.25,124.52,86.93Z" style="fill:#fff"/><path d="M137,56.94c-.28,3.66-1.47,8.66-4.83,14.91a33.3,33.3,0,0,1,6.77.85A93.91,93.91,0,0,1,137,56.94Z" style="fill:#fff"/><path d="M134.71,108.21a38.52,38.52,0,0,1-2.62,8.89c-1.27,2.64-5.85,6.81-5.85,6.81s6.74-3,7.8-6.23A21.86,21.86,0,0,0,134.71,108.21Z" style="fill:#fff"/><path d="M150.7,116.91c-.07-.62-.12-1.28-.15-1.93a62.52,62.52,0,0,1,0-6.67,33.06,33.06,0,0,0-1,4.63,28.15,28.15,0,0,0-.3,3.8,7.45,7.45,0,0,0,1.89,4.68c.27.31.45.48.45.48l-.18-.77A40.13,40.13,0,0,1,150.7,116.91Z" style="fill:#fff"/><path d="M204.61,111.46c-.46.49-1,1-1.54,1.55s-1,.87-1.5,1.31c-1.83,1.47-3.38,2.58-4.68,3.45-.35.23-.68.45-1,.64l-.15.1-1.14.69-.88.5A20.52,20.52,0,0,0,191.5,121a1.45,1.45,0,0,0-.48,1.28.72.72,0,0,0,.67.64,2.51,2.51,0,0,0,1.32-.67c.46-.35,1-.79,1.58-1.23l.18-.13c.24-.18.59-.43,1-.68s.78-.5,1.16-.73c.69-.41,1.28-.71,1.37-.62s-.52.84-1.39,1.61l-1.16,1c-.23.22-.45.42-.64.62a4,4,0,0,0-.55.65c-.19.28-.23.5,0,.61a1,1,0,0,0,.4.07,3.59,3.59,0,0,0,.75-.13c.32-.07.71-.17,1.16-.31,3-.9,8.46-3.2,11.26-7a10.08,10.08,0,0,0,2.32-5.54c-.16-.32-.46-.52-1-.26-.8.36-1.69,1-2.24,1.24-.26.13-.45.19-.49.1s.48-.86,1.07-1.57a10.75,10.75,0,0,0,1.08-1.44.65.65,0,0,0-.06-.78h-.23C207.5,107.91,206.46,109.46,204.61,111.46Zm-6.12,10a.63.63,0,0,1-.58-.19c-.27-.35,0-1,.54-1.51s1.24-.59,1.51-.24,0,1-.54,1.51a1.86,1.86,0,0,1-.43.28A1.24,1.24,0,0,1,198.49,121.49Zm8.21-8.5c.56-.48,1.23-.59,1.51-.23s0,1-.54,1.5-1.24.59-1.51.24a.73.73,0,0,1,0-.7,1.58,1.58,0,0,1,.13-.26A2.1,2.1,0,0,1,206.7,113Z" style="fill:#fff"/><path d="M26.4,80.51c.37,6.33,1,13.39,1.77,19.55l12.89-2.91,1.27-.29,1.29-.29,1.56-.35q-.32-1.25-.63-2.43c-.18-.65-.37-1.28-.55-1.9s-.36-1.17-.54-1.74c-2.26-7-4.76-11.94-5.81-15.31A9.08,9.08,0,0,1,36,76.62l.62-5c-1.68-.07-3.68-.18-5.68-.31l-2.57-.18L26,71c0,1.37.06,2.87.13,4.46S26.3,78.75,26.4,80.51Z" style="fill:#fff"/><path d="M60,110.33c3.11-.71,5.67-2.29,6.24-2.08s-2,3.75-5.86,5.08l.9,6.88,0,.15c4.61-.75,9.32-1.63,13.69-2.43,6.12-1.13,11.58-2.12,15.2-2.43a17.51,17.51,0,0,1,4.6.23,16.75,16.75,0,0,1,3.4,1,18.41,18.41,0,0,1,2.83,1.14,16.27,16.27,0,0,1,3.84,2.66,6.2,6.2,0,0,1,1.57,2.28c.71,1.77.38,3.34,0,3.15s-.27-.6-.65-1.34a5,5,0,0,0-.82-1.15,10.14,10.14,0,0,0-1.43-1.26A18.57,18.57,0,0,0,93.78,119h-1A19.22,19.22,0,0,0,96,127.56a14.46,14.46,0,0,0,3,3l4.12-1.76.13-.06s-1.24,1.6-2.51,2.94c-.29.31-.59.61-.87.87s-.55.54-.85.83l-.27.26c-.61.57-1.12,1-1.56,1.43-1.36,1.22-2,1.67-2,1.67a5,5,0,0,0,3.05-.49l.36-.2a13.64,13.64,0,0,0,2.24-1.58,13.21,13.21,0,0,0,1.81-1.9,11.06,11.06,0,0,0,2.52.65s3.75-1.63,9.93-13.65c2.57-5,4.64-15.88,2.72-22.2a10.34,10.34,0,0,0-4.31-5.93,4.48,4.48,0,0,0-1-.65l-.21-.1a18.58,18.58,0,0,0-2.58-.85l-.84-.07-1-.09-2-.2-.76-.08c-1-.1-1.9-.22-2.82-.34l0,0c-3.48-.41-7.34-.8-9.63-.81-2.71,0-10.48,4.25-15.38,7.1-3.36,2.66-6.52,5.7-7.12,5.69-.41,0,.41-1.58,1.72-3.44a19.31,19.31,0,0,0-4.56,0,42.26,42.26,0,0,0-5.62,1c-1.13.27-2.14.58-3.07.9l.09.74Zm36.22-7.88a23,23,0,0,1,6,2.11,9.72,9.72,0,0,1,1.49,1,3.62,3.62,0,0,1,1.08,1.25l-1.26-.25-2.28-.48-5.45-1.17c-6.86-1.48-15.45-3.25-15.45-3.25A55.31,55.31,0,0,1,96.24,102.45Z" style="fill:#fff"/><path d="M35.3,38.29c.84,0,1.74.06,2.64.11l1,.08c.57,0,1.12.1,1.65.17s1,.13,1.41.21l.48.1.28.06a8.61,8.61,0,0,1,1.11.34,4.11,4.11,0,0,1,.51.22,17.32,17.32,0,0,1,1.62.93,16.83,16.83,0,0,1,1.73,1.24l.62.53a13.51,13.51,0,0,1,1.13,1.17h0a14.54,14.54,0,0,1,1.54-2.21c.14,0,.19.7.07,1.58a7.22,7.22,0,0,1-.34,1.5l1.06-.88s.25-.73.53-1.68a23.5,23.5,0,0,0,.88-3.61,1,1,0,0,0,0-.46c-.42-.93-1.68-1.18-2.74-1.27,1,.49,1.63,1.23,1.5,1.3a9.25,9.25,0,0,1-1.56-.49,6.35,6.35,0,0,0-2.72-.45h0l-.23,0-1.31.52c-.82.32-1.62.62-2.18.8l-.31.08a1.63,1.63,0,0,1-.35.07h-.11c-.17-.06.15-.39.67-.8a16.58,16.58,0,0,1,1.9-1.28l.21-.12L45.66,36A5.39,5.39,0,0,0,44.2,36h-.07L43,36.44l-.38.15-1.77.68c-.41.15-.78.27-1,.35l-.32.07a.64.64,0,0,1-.22,0c-.22-.07.35-.58,1.11-1.12.3-.22.64-.45,1-.66h-.61a6.4,6.4,0,0,0-1,.18l-.26.11a19.06,19.06,0,0,1-3.12,1.12h-.1c-.23-.07.33-.62,1.07-1.19a10.71,10.71,0,0,0-3.48,2.13H34Z" style="fill:#fff"/><path d="M51.66,45.49l-.57.39-2.41,1.66-2.2,1.57a13.28,13.28,0,0,1-1.72,1.12c-.21,0,.08-.64.69-1.51.12-.17.26-.36.41-.55a10.4,10.4,0,0,1,.84-1,1,1,0,0,0-.2-.11,3.2,3.2,0,0,0-1.56-.33,6.6,6.6,0,0,0-1.57.29l-.09,0c-.3.1-.61.21-1,.36a3.84,3.84,0,0,0-.35.18,7,7,0,0,0-1.36.86A7.73,7.73,0,0,0,38,53a7.27,7.27,0,0,0,.14,3.39l.06.24a5.13,5.13,0,0,0,1.11,1.84l.1.08a4.34,4.34,0,0,0,4.75.54,7.88,7.88,0,0,0,2.93-2c.49-.59.93-1.1,1.38-1.6a43.24,43.24,0,0,1,4.17-4.09c1.28-1.14,2.13-1.73,2.38-2.65-.38-.44-1.18-1.38-1.7-2-.18-.22-.32-.41-.4-.53-.2-.3.31-.28.91,0a3.35,3.35,0,0,1,1,.68c-.16-.59-.31-1.11-.44-1.56-.27-.89-.46-1.49-.55-1.75l-.06-.16s-.09.18-.22.4a3,3,0,0,1-.47.63C53,44.54,52.42,45,51.66,45.49Z" style="fill:#fff"/><path d="M51,123.48l-1.77-.87-1.14-.56c-2.13-1-5.07-2.5-7.86-3.8l-1.14-.53L38,117.24l-.09,0-.1,0-2.29-1c-1.84-.77-3.33-1.52-4.57-2-1.45-.6-2.55-.85-3.44-.37a.78.78,0,0,0,0,1.15c.59.68,4.08,2,4,2.34s-2.69-.5-4.18-.73a1.55,1.55,0,0,0-.44,0c-.73.15-.75,1.07-.65,1.75A10.64,10.64,0,0,0,30,123.1a20.91,20.91,0,0,0,8.27,3.5l1.17.24,1.17.19c1.16.18,2.26.29,3.23.35a17.18,17.18,0,0,0,4,0,.92.92,0,0,0,.41-.2c.19-.16.16-.37,0-.62a8.34,8.34,0,0,0-2-1.49c-1.74-1-3.86-2.08-3.61-2.45s3.17,1,4.39,1.46c.72.28,1.44.63,2.1.94,1,.49,1.92.89,2.31.74a.89.89,0,0,0,.6-.89A1.64,1.64,0,0,0,51,123.48ZM29.7,119.27c.2-.48,1-.58,1.8-.21s1.26,1,1,1.54-1,.58-1.8.22S29.49,119.76,29.7,119.27Zm13.46,4.92a2.25,2.25,0,0,1,.91.76.83.83,0,0,1,.13.79c-.2.49-1,.58-1.79.21s-1.27-1-1.06-1.54A.77.77,0,0,1,42,124,2.14,2.14,0,0,1,43.16,124.19Z" style="fill:#fff"/><path d="M43,105.19a13.34,13.34,0,0,0,1,1.15c1.6,1.69,5.69,3.63,6.59,2.34a14.87,14.87,0,0,0,1.95-6.58,3,3,0,0,0,0-.43c-.07-.74-.33-1.2-.9-1.1a3.72,3.72,0,0,1-3-.65c-.05.5-.12,1-.21,1.46a13.17,13.17,0,0,1-.54,2.06c-.16.41-.3.63-.4.56a1.14,1.14,0,0,1-.18-.41c-.18-.54-.4-1.55-.64-2.61-.66.36-1.5.79-2.58,1.29C42.41,103,41.79,103.58,43,105.19Z" style="fill:#fff"/><path d="M105.58,84.15a7.44,7.44,0,0,0,2.28,1.24l.4.13a6.53,6.53,0,0,0,1.82.23,6,6,0,0,0,2.35-.51,35.07,35.07,0,0,0,6.47-3.09,32.32,32.32,0,0,0,3.62-2.59,35.79,35.79,0,0,0,5.26-5.43c.59-.74,1.16-1.52,1.72-2.33.41-.59.81-1.19,1.21-1.83a29.2,29.2,0,0,0,4.57-14.74,2.07,2.07,0,0,1-.61-.69,2.81,2.81,0,0,0,.62.15,2.66,2.66,0,0,0,.88,0,2.53,2.53,0,0,0,.81-.29l.06,0a5.46,5.46,0,0,0,1.85-2.5c.11-.26.25-.51.38-.76s.21-.38.32-.57.38-.64.57-1A17.92,17.92,0,0,0,142,46.18a5.45,5.45,0,0,0,.3-1.12,5.67,5.67,0,0,0,.06-1.17c0-.13,0-.26,0-.38a15.09,15.09,0,0,0-.3-1.92,2.6,2.6,0,0,0-1.6-1.84,4.07,4.07,0,0,0-3.17.3h0a6.75,6.75,0,0,0-1.1.67l-.06.05a12.06,12.06,0,0,0-1,1.09l-.32.44-.08.11a2.73,2.73,0,0,0-.25.48,5.55,5.55,0,0,0-.28,1.12s0,.06,0,.09c-.07.41-.13.87-.24,1.38a9.41,9.41,0,0,1-.25,1,11.89,11.89,0,0,1-1.14,2.62c-.79,1.36-.8,1.68-.7,2.52.34,2.82-.68,3.26-.89,3a4.86,4.86,0,0,0-1.07-2.84,4,4,0,0,1-.59-3.16,3.88,3.88,0,0,0-.79-3.51c-.83-1.25-2.71-1.82-4.43-2.71l-.6-.33a7.75,7.75,0,0,1-1.3-.95l-.33-.35-.4.3L120,42.21l-1.08.78-.59.42.32.11c1.92.74,3,1.66,2.54,1.6s-1.57-.38-3-.58c-.4,0-.83-.1-1.27-.12-1.45,1-3,2-4.49,3a11.34,11.34,0,0,1,3.49,0,1.64,1.64,0,0,1,.6.13l.17,0a6.9,6.9,0,0,1,1,.33,17.78,17.78,0,0,0,2.73.6c2,.26,3.12.07,3.16.29a9.39,9.39,0,0,1-2.18,3.58s0,.06,0,.06h0a10.57,10.57,0,0,1-4.21,2.69,24.81,24.81,0,0,1-2.46.85,17.63,17.63,0,0,1-2.39.53,7.49,7.49,0,0,1-4.11-.22l.32,0a27.49,27.49,0,0,0,3.79-.76l.59-.17c.5-.14,1-.31,1.54-.5l0,0a3,3,0,0,1-1-.53,3.41,3.41,0,0,1-1.23-2.91,3.37,3.37,0,0,1,1.43-2.5,13.76,13.76,0,0,0-3.9.82c-1,.54-1.16,2.19-1.84,4.33a8.11,8.11,0,0,1-.9,2c-.44.69-.83,1-.95,1s.44-1.8.83-3.53c.18-.79.28-1.76.5-2.66a9.27,9.27,0,0,1-1.57,2,3.5,3.5,0,0,1-2.58.65,8.72,8.72,0,0,0,.84-1c-2,1-3.93,2-5.73,2.72l.24.12a2.48,2.48,0,0,1-2,.62,2.18,2.18,0,0,1-.23.09l.48.56a10.65,10.65,0,0,1,1.81,2.41s-.17.07-.42,0a3.09,3.09,0,0,1-.72-.46,1.42,1.42,0,0,1-.24.92l.8-.27,0,.08c.12.28.22,1.28-4.13,2.31a18.39,18.39,0,0,1-3.39.47,36.39,36.39,0,0,0,1.16,4.46c.55,1.73,3.29,4.65,6.15,7.75a80.09,80.09,0,0,1,6.08,7.4C105,83.17,105.58,84.15,105.58,84.15ZM137,53.49h0a1.36,1.36,0,0,1-.73.17,1.39,1.39,0,0,1-1-.44,1.49,1.49,0,0,1-.05-2,1.45,1.45,0,0,1,1.15-.51l.16,0a1.25,1.25,0,0,1,.57.23,1.43,1.43,0,0,1,.64,1.28A1.46,1.46,0,0,1,137,53.49ZM134,50.57a4.26,4.26,0,0,1,.51-.62c.23-.26.48-.52.68-.76a1.69,1.69,0,0,0,.34-.53c0-.26-.29-.53-.43-1.21a3.69,3.69,0,0,1,0-.85c0-.1,0-.19,0-.3a3.76,3.76,0,0,1,.36-.94,9.46,9.46,0,0,1,.53-1c.09-.15.19-.3.29-.45s.27-.38.42-.57a8.54,8.54,0,0,1,.74-.82l0,0,.1-.09a1.58,1.58,0,0,1,1.19-.52.82.82,0,0,1,.51.45,3,3,0,0,1,.55.7,5.8,5.8,0,0,1,.29.51,2.64,2.64,0,0,1,.23.82,3.58,3.58,0,0,1-.09,1.18,4.92,4.92,0,0,1-1.4,2.5,6.35,6.35,0,0,0,.45-2.78,2.83,2.83,0,0,0-.67-1.4,5,5,0,0,0-.4-.39,1.28,1.28,0,0,0-.32.2,3,3,0,0,0-.41.4l-.11.13-.32.44a7.73,7.73,0,0,0-.72,1.36c0,.07,0,.13-.07.2a3.43,3.43,0,0,0-.12.39c-.19.79.31,1.37.3,2.26,0,.56-.63,1-1.2,1.36-.23.16-.45.3-.62.44a1.9,1.9,0,0,0-.2.22c-.39.55-.32.63-.32.63A.89.89,0,0,1,134,50.57ZM104.17,67a5.6,5.6,0,0,1,1.64-.09c.41-.06-.35-3-.35-3a2.3,2.3,0,0,1,1.28,1.28,5.41,5.41,0,0,1,.37,1.62,1.31,1.31,0,0,1-.6,1.36l-.09,0c-.26.12-.31.07-.37,0a.85.85,0,0,0-.51-.3,3.52,3.52,0,0,0-1.12-.1c-1.09.08-1.28,1-1.41.94A1.62,1.62,0,0,1,104.17,67Zm-2.38-2.85a2.78,2.78,0,0,1-.06,1.68c-.33,1.14-1.19,1.27-1.08,1S101.79,64.14,101.79,64.14Zm-3.39,5c-1.46-.41-2.33-1.44-2.18-2.33s.73-1.16,1.83-2.59a12.22,12.22,0,0,0,1.83-3.47c.16,0,.76,1.53-.54,4.06A23,23,0,0,0,98.16,67c0,.6.24.93,1,1.15a7.12,7.12,0,0,0,1.66.32c1.14.1,1.13,1.06,1,1.11s-.29-.22-.83-.23A6.37,6.37,0,0,1,98.4,69.17Zm3.9,7.77a4.62,4.62,0,0,1-.69-1.63s-.67-.4-.59-1c.32-2.17,2.26-1,2.84-1h0c1.6,0,1.55-3.55,5.06-1.85l.21.09c2.84,1.49,3.74,1.08,4.25.82-.44-.45-.59-1-.16-.85a3.13,3.13,0,0,1,1,.5c.39.36.6.7.46,1.06,0,0,0,0,0,.06s-.18.1-.32,0l-.38-.31a1.38,1.38,0,0,1-.31.46,2.26,2.26,0,0,1-.85.54,9.3,9.3,0,0,1-1,1.48c.25.22-.19,1.06-1,1.65a12.22,12.22,0,0,1-1.19.84,6.24,6.24,0,0,1,.93.09c1.08.22,1.57.69,1.29.77s-1,.22-1.79.37l-2.49.45-.38.07c-.74.13-1.38.25-1.74.33-.53.11-.46-.6.56-1.22a4.93,4.93,0,0,1-2.93-.88A4,4,0,0,1,102.3,76.94Z" style="fill:#fff"/><path d="M93.72,60.23a1.57,1.57,0,0,1-.38-.22,2.87,2.87,0,0,1-1-2.74c-.76.24-1.49.46-2.2.64h0L89.7,58a7.67,7.67,0,0,0,.1,2.35.5.5,0,0,0,0,.12l.4,0A12.28,12.28,0,0,0,93.72,60.23Z" style="fill:#fff"/><path d="M94.12,57.86A.61.61,0,0,0,94,57a.52.52,0,0,0-.77.12.62.62,0,0,0,.09.83A.53.53,0,0,0,94.12,57.86Z" style="fill:#fff"/><path d="M118.33,52.55c0,.09-.07.16-.1.25a10.85,10.85,0,0,0,1.1-.91,4.63,4.63,0,0,0-.36-.65,4.91,4.91,0,0,0-.76-.9,3.55,3.55,0,0,1,.24,1.53A3.71,3.71,0,0,1,118.33,52.55Z" style="fill:#fff"/><path d="M113.83,51.71a.7.7,0,0,0,.11-1.4.7.7,0,0,0-.11,1.4Z" style="fill:#fff"/><path d="M124.75,40.21a8.12,8.12,0,0,0,1.88,1.35c1.53.8,2.92.92,2.92.6,0-.09-.08-.16-.21-.24a11.64,11.64,0,0,1-2.66-1.51,6.77,6.77,0,0,1-1.46-1.75l-.16-.26-1.12.86a7.51,7.51,0,0,0,.61.74Z" style="fill:#fff"/><path d="M131.3,41a3.59,3.59,0,0,0,.48.14,4.12,4.12,0,0,0,.59.12c.36,0,.59,0,.58-.15,0-.67-3.21-.42-5-5l-.71.57-.44.35A7.78,7.78,0,0,0,131.3,41Z" style="fill:#fff"/><path d="M144,28.18c.79-.17,2.89-1.31,5.5,2.09,1.19,1.55,1.22,2.83,1.63,3.2.66.61,1-.74-.64-3.57-2.25-3.88-5.81-2.89-6.64-2.13-.14.12-.21.24-.18.33S143.77,28.22,144,28.18Z" style="fill:#fff"/><path d="M144.65,29.46c.08.56,2.11-.16,3.9,3.84.68,1.5.67,2.36.92,2.74.41.63.83-.42,0-3C148.14,28.78,144.57,28.91,144.65,29.46Z" style="fill:#fff"/><path d="M145,31.66a.08.08,0,0,0-.06.08c0,.11.06.21.17.34a7.68,7.68,0,0,1,2.07,4.22c.32,1.4.17,2.13.32,2.5.24.62.78-.21.52-2.61C147.65,32.66,145.39,31.44,145,31.66Z" style="fill:#fff"/><path d="M106.74,75.89a1.88,1.88,0,0,0,1.16.11,1.78,1.78,0,0,0,1.32-.85c.16-.51-.5-.73-1.19-.6a2.26,2.26,0,0,0-.78.32c-.42.25-.74.6-.7.79A.32.32,0,0,0,106.74,75.89Z" style="fill:#fff"/><path d="M170.84,68.6c.41-.52-3.6.63-8,1-4.13.29-8.29.44-10.31.48a8.47,8.47,0,0,0-6.28,3,4.52,4.52,0,0,1,1.16,1.29c1.77-.56,7.81-2.43,8.34-2.2s-3,2.53-5.69,3.36l.94,0a78.19,78.19,0,0,0,9.58-1.73C167,72.12,170.05,69.61,170.84,68.6Z" style="fill:#fff"/><path d="M159.69,78.35a40.46,40.46,0,0,0-8.37-1c-1,0-2-.08-2.74-.1,0,.11,0,.23.07.34l.12,0c2.77.76,12.47,3.45,12.6,4s-9.83-1-12.7-2.13a3.48,3.48,0,0,1-.1.44c3.81,1.52,11.94,4.62,17.64,5.7,6.18,1.18,13.72-6.85,13.56-7.42s-3.56,1.25-7.2,1.88a4.63,4.63,0,0,1,1.27,1.06l-9-1.49v0A36.75,36.75,0,0,1,159.69,78.35Z" style="fill:#fff"/><path d="M145,78.41a4.32,4.32,0,0,1,.49,1.09,5.18,5.18,0,0,1,.23,1.43,2.48,2.48,0,0,0,1.17-1.67,3.38,3.38,0,0,0-.07-1.46c0-.1-.06-.21-.09-.31a7.8,7.8,0,0,0-.84-1.84,2.46,2.46,0,0,0-.17-.27,3,3,0,0,0-1.2-1,2.43,2.43,0,0,0-2.07.07l-.13.07.24.24a7,7,0,0,1,.74.93L145,77.17l1.44,1.35A1.64,1.64,0,0,1,145,78.41Z" style="fill:#fff"/><path d="M124.09,82a37,37,0,0,1-5.36,3.79l.34-.07c8.63-1.75,16.88-4.06,21.73-4.76a5.37,5.37,0,0,1,.84-.07,3,3,0,0,1,1.28.18l.18.1s.55,0,.26-.94a3.29,3.29,0,0,0-.6-1.07,10.42,10.42,0,0,0-1.86-.8l-.52-.17a26,26,0,0,0-4.71-.88,8.12,8.12,0,0,1,4.17-.51h.07a10.87,10.87,0,0,1,1.63.32,4.32,4.32,0,0,0-1.86-1.65l-.18-.07-.13-.06a27.07,27.07,0,0,0-8.53-1.16,33.23,33.23,0,0,1-3.75,4.93c4-.18,7.89.21,7.29.58S128.32,81.13,124.09,82Z" style="fill:#fff"/><path d="M143.61,104.53l.67-.07c0-.62,0-1.21,0-1.79-.19,0-.38.06-.56.07-6.25.53-11.44-3.72-14.78-7.52a33.72,33.72,0,0,1-2.82-4c-.21-.32-.44-.61-.64-.86l-.82,0c-.63,0-1.42.06-2.31.06a16.49,16.49,0,0,1,2.57,3C127.75,97.8,134.62,105.32,143.61,104.53Z" style="fill:#fff"/><path d="M147.56,103.65c9.23-3.37,5.65-13.35,4.28-16.43-.74.06-1.42.1-2.05.11,1.15,2.67,4.42,11.72-2.57,14.59l-.45.17c.14.55.27,1.12.4,1.71Z" style="fill:#fff"/><path d="M98.25,132.89l-.16-.13a20.75,20.75,0,0,1-4.63-5.35A21,21,0,0,1,91.15,121c-.15-.74-.26-1.39-.34-1.89-.74,0-1.55.1-2.42.2a17.76,17.76,0,0,0,.88,4.36c.3.95.7,2,1.22,3.23a21.32,21.32,0,0,0,6.66,8.26c.43-.39.95-.86,1.56-1.43l.27-.26C98.74,133.26,98.49,133.08,98.25,132.89Z" style="fill:#fff"/><path d="M107.23,138.55c5.83-.27,16.88-20.92,16.74-35.84-.08-7.33-3.54-11.47-4.26-12.26l-1.24,0-2.39-.1.35.28c1.25,1,3.69,3.71,4.56,9.16,2.52,20.09-13.58,35.9-13.58,35.9a10.82,10.82,0,0,1-6.57-1.14,13.06,13.06,0,0,1-2.24,1.58A15.19,15.19,0,0,0,107.23,138.55Z" style="fill:#fff"/><path d="M156.08,117.57c-.44,2-.9,3.71-1.27,5-.47,1.68-.82,2.7-.82,2.7a38.14,38.14,0,0,0,3-6.39c.38-1,.76-2.12,1.11-3.32l.18-.62a42.22,42.22,0,0,0,1.56-13.75c-.06-1.07-.16-2.15-.32-3.24-1.26-8.7-2.94-10.77-3.46-11.21L156,86.7c-.85.14-1.65.25-2.4.34.43.46,3,3.63,4,14.68.44,4.84-.39,10.5-1.36,15.07C156.19,117.06,156.13,117.32,156.08,117.57Z" style="fill:#fff"/><path d="M96,32.17c.07-2.52.1-5.12,0-6.6,0-.9-.12-1.84-.19-2.76s-.13-1.6-.2-2.31c-.09-1-.17-1.79-.23-2.29,0-.33,0-.53,0-.53a4.82,4.82,0,0,1,.3.48,10.16,10.16,0,0,1,.87,2.15A18.09,18.09,0,0,1,97,22.55,31.88,31.88,0,0,1,97.39,29c0,1-.1,1.92-.19,2.79-.14,1.3-.31,2.46-.5,3.46h0c-.11.5-.22,1-.33,1.49h0c0,.07,0,.14,0,.21-.27,1.16-.49,2.08-.49,2.08a17.28,17.28,0,0,0,1.85-3,12.84,12.84,0,0,0,.53-1.24c1.42-.45,3-1,4.69-1.62,1.36-.51,2.81-1.07,4.35-1.72A86.31,86.31,0,0,0,117,26.62c.38-.21.75-.43,1.12-.65,2.14-1.26,4.08-2.52,5.76-3.67l1.52-1.53.17-.17-4.07-.78-.69.69-3.6,3.65-.46-3.71-.29-2.29V18L112.53,16l-1.45-.77,5.47-2.63,1-6.08L121.66,11l6-.94-2.91,5.41.34.68,1.18,2.4.47.95.87-.83c.78-.73,1.52-1.41,2.25-2.05.57-.5,1.12-1,1.65-1.42-.33-1.2-.74-2.61-1.16-4-1.3-4.36-3.46-5.47-6.51-5.84-7-.86-28.49,5.69-31.37,13.58a4.92,4.92,0,0,0-.32,1.53c0,.29,0,.6,0,.91,0,.76-.08,1.57-.12,2.42-.17,3.36-.39,7.27-.58,10.72,0,.77-.09,1.5-.13,2.21,1.12-.23,2.69-.61,4.65-1.17C95.94,34.5,96,33.34,96,32.17Zm7.84-10.79.25.21A32.62,32.62,0,0,0,107.2,24a8.06,8.06,0,0,1-4.15-1.67c-.34-.25-.64-.5-.92-.75a8.07,8.07,0,0,1-1.7-2.05c-.72-1.29-.49-2.06.2-1.27.35.4.67.75,1,1.07C102.31,20.05,103,20.64,103.84,21.38Z" style="fill:#fff"/><path d="M77.73,56.41a27.9,27.9,0,0,0,8.88-.22c.77-.13,1.57-.29,2.4-.47l.73-.18.78-.19c1-.26,2-.56,3.07-.92l.25-.08.45-.16,1.38-.51a61.51,61.51,0,0,0,10.85-5.49q1.29-.81,2.61-1.71c1.82-1.26,3.59-2.53,5.31-3.78l.65-.48L116.67,41l1.51-1.14c.81-.62,1.61-1.23,2.38-1.84l1.28-1,.88-.7,1.12-.9,1.23-1c.3-.26.61-.51.91-.75l.76-.63h0q2.08-1.74,3.89-3.3c1.28-1.1,2.45-2.13,3.48-3.05l.4-.36c1.77-1.59,3.11-2.84,4-3.65l1.06-1,.82-.85.06-.07.37-.37s0,.18,0,.47,0,.37,0,.59a6,6,0,0,1-.39,1.68,1.59,1.59,0,0,0-.07.2,2.55,2.55,0,0,1-.14.24l.21.63a10.37,10.37,0,0,0,.72-.89c.13-.18.27-.38.42-.61a12.38,12.38,0,0,0,.78-1.47,9.77,9.77,0,0,0,.67-2.18,8.4,8.4,0,0,0,.13-1.25c.08-2.63.14-5.44-1.17-5.26s-3.48,1.15-6.15,3c-.69.48-1.42,1-2.17,1.59l-1.36,1.07-1.05.88c-.69.59-1.39,1.21-2.11,1.86l-.17.17c-.87.8-1.75,1.64-2.63,2.53l-1,1.07c-1.84,1.93-3.91,3.91-5.84,5.68-.7.7-1.59,1.62-2.6,2.65-2.13,2.18-4.75,4.87-7,7.19l-1.08,1.12-.15.15-1.24,1.31c-.86.89-1.54,1.62-1.94,2.07-2.45,2.74-7.39,4.91-7.39,4.91S102,46.25,104,44.07c.2-.22.45-.51.73-.84l.09-.11c.31-.36.65-.78,1-1.23l1.06-1.3,1.2-1.49c-1,.57-2.14,1.18-3.32,1.8s-2.57,1.3-3.88,1.88c-1.12.51-2.23,1-3.3,1.35A36,36,0,0,1,89.79,46l-.34,0a.49.49,0,0,1,0,.11l-.09.24a13.77,13.77,0,0,1-.57,1.27,8.25,8.25,0,0,1-.83,1.38c-.29.38-.48.47-.44.1,0-.2,0-.55.09-1s.07-.82.11-1.31l.06-.66h0l0-.59.09-1.49L87.93,43l0-.3a59,59,0,0,1-3.88,4.54L83,48.42l-.89,1,0,0c-1,1.15-1.84,2-2.49,2.66-.94,1-1.57,1.6-2.19,2.22C77,54.74,77,56.3,77.73,56.41ZM138.27,16a18.85,18.85,0,0,1-1.61,1.63l-1.46,1.38-.61.57-2.12,2-.55.51-2,1.87L127,26.62c-4.51,4.14-8.65,7.91-8.65,7.91l.06-.08a110.39,110.39,0,0,1,8.62-9.85c.56-.55,1.11-1.08,1.66-1.6l.19-.17c.25-.24.51-.46.76-.69l.92-.81c.81-.69,1.59-1.33,2.32-1.9l.1-.08.62-.47c.72-.54,1.38-1,2-1.42C137.33,16.28,138.41,15.75,138.27,16Z" style="fill:#fff"/><path d="M98.69,175.23a4.28,4.28,0,0,1-.42-.88,16.66,16.66,0,0,0-.64-2l-.19-.4a9.34,9.34,0,0,0-.65-1.12,6.66,6.66,0,0,0-1.1-1.21l0,0a6.36,6.36,0,0,0-1-.64,4.57,4.57,0,0,0-2.22-.37l-.36,0a4.51,4.51,0,0,0-1.58.5,4.28,4.28,0,0,0-.77.55,5.18,5.18,0,0,0-.91,1A8.36,8.36,0,0,0,88.1,172a11.06,11.06,0,0,0-.48,2c-.05.74-.1,1.22-.14,1.46a2.92,2.92,0,0,1-1,1.57l.18.12a2.41,2.41,0,0,1,.52.55l.1.12a7.7,7.7,0,0,1,.62,1.4,15.86,15.86,0,0,0,.69,2.12,7.88,7.88,0,0,0,1.11,1.85,5.48,5.48,0,0,0,.89.88,5,5,0,0,0,1,.62,5.8,5.8,0,0,0,.87.27,4.2,4.2,0,0,0,1.32.08l.35,0a3.56,3.56,0,0,0,.65-.13,4.39,4.39,0,0,0,1.26-.56,5.07,5.07,0,0,0,1.13-1,6.62,6.62,0,0,0,1.09-2.17,10.24,10.24,0,0,0,.34-1.72q0-1.12.06-1.68c0-.12,0-.23,0-.31a2.36,2.36,0,0,1,.37-1.13,1.09,1.09,0,0,1,.46-.42v0A1.48,1.48,0,0,1,98.69,175.23Zm-3.46,7.18a.52.52,0,0,1-.06.13,1.52,1.52,0,0,1-1.39.88,2,2,0,0,1-1-.13,1.21,1.21,0,0,1-.57-.5,3.33,3.33,0,0,1-.28-.74,19.54,19.54,0,0,1-.37-2.59,7.64,7.64,0,0,1,0-1.78,3.67,3.67,0,0,1,.11-.54,2.17,2.17,0,0,1,.42-.76l-.09,0c-.52-.23-.85-.94-1-2.16q0-.22,0-.36a7.45,7.45,0,0,1,0-2.65q.24-.89,1.47-1a1.61,1.61,0,0,1,1.54.51,2.6,2.6,0,0,1,.36.92c.06.2.18,1,.35,2.28h0l0,.15a3.11,3.11,0,0,1-.51,2.08l0,.07h0l.07,0a2.29,2.29,0,0,1,.75,1.48,9.93,9.93,0,0,1,.19,1.19c0,.28.07.7.12,1.24a12.6,12.6,0,0,1,.08,1.6A2.37,2.37,0,0,1,95.23,182.41Z" style="fill:#fff"/><path d="M150.41,177.58v0a2.08,2.08,0,0,1-1.18-.13c-.3-.17-.5-.62-.58-1.37l-.36-3.42a2,2,0,0,0-.66-1.4,2.87,2.87,0,0,0-1-.52,5.82,5.82,0,0,0-1.09-.19h0a3.58,3.58,0,0,0,1.63-1.36,12.78,12.78,0,0,0,.4-1.27,2.42,2.42,0,0,1,.33-.72,1.26,1.26,0,0,1,.32-.33h0l-.14,0a1.74,1.74,0,0,1-.69-.85,3.71,3.71,0,0,0-.8-1.42,3.9,3.9,0,0,0-1.7-1,5.89,5.89,0,0,0-2.3-.15l-.27,0a6.32,6.32,0,0,0-2.6.8,2.16,2.16,0,0,0-.65.6,2.31,2.31,0,0,0-1.82-.55,2.68,2.68,0,0,0-1.4.55,1.05,1.05,0,0,0-.4.63v.15a3.27,3.27,0,0,1,1.65.11,1,1,0,0,1,.38.5,17.57,17.57,0,0,1,.39,2.86c0,.06,0,.1,0,.11s0,0,0,.1v.05a3.4,3.4,0,0,1-.09,1.59,1.21,1.21,0,0,1-.67.6v0a.92.92,0,0,1,.52.23c.36.24.61,1,.74,2.32v.06a1,1,0,0,0,0,.15v.12c.18,1.83.27,2.74.26,2.74a3.51,3.51,0,0,1,0,.54,1.22,1.22,0,0,1-.17.73c-.2.28-.76.47-1.69.57v0l0,.12s.06.1.19.22A2.54,2.54,0,0,0,139,180a1.85,1.85,0,0,0,1.52-1.06,2.29,2.29,0,0,0,1.92.7,2.52,2.52,0,0,0,1.09-.39,1.72,1.72,0,0,0,.71-.94v-.14a3.63,3.63,0,0,1-1.59-.07.79.79,0,0,1-.43-.45,2.18,2.18,0,0,1-.17-.66l-.52-5,.87-.09a4,4,0,0,1,2.06.05c.3.1.49.57.58,1.41l.45,4.27.17,1.63v0a2.13,2.13,0,0,0,.6-.17,2.1,2.1,0,0,0,1.06-.9,1.84,1.84,0,0,0,1.49.58,2,2,0,0,0,1-.4,1.89,1.89,0,0,0,.6-.71v-.15Zm-6.09-8.38c-.15.62-.82,1-2,1.13l-.93.09-.41-3.89a2.05,2.05,0,0,1,.1-1c.16-.36.57-.57,1.23-.64a2.34,2.34,0,0,1,1,.07c.59.19.93.73,1,1.61l.16,1.55A2.57,2.57,0,0,1,144.32,169.2Z" style="fill:#fff"/><path d="M168.7,168.55a2.25,2.25,0,0,1-.95-1.16,10.43,10.43,0,0,1-.42-1.46,8.69,8.69,0,0,0-.6-1.61,5,5,0,0,0-2.3-2.42,5.73,5.73,0,0,0-3.06-.45l-.34,0a3.45,3.45,0,0,0-2.72,1.34,1.92,1.92,0,0,0-1.86-.65h-.1a1.94,1.94,0,0,0-1.69,1.3v.09l0,0a4.67,4.67,0,0,1,.9,0,1.72,1.72,0,0,1,.74.13.89.89,0,0,1,.38.47,10.35,10.35,0,0,1,.33,2.21,4.16,4.16,0,0,1-.48,2.83,2.31,2.31,0,0,1-.67.65h0s0,0,.17.06a1.82,1.82,0,0,1,.65.4,4.86,4.86,0,0,1,1.08,3.09c0,.32,0,.58.07.82,0,.45.06.75.08.89a2,2,0,0,1-.13,1.14c-.2.34-.77.55-1.71.65,0,0,0,0,0,.05a.72.72,0,0,0,.35.53,3.3,3.3,0,0,0,.32.18,2.7,2.7,0,0,0,1.45.23,2.4,2.4,0,0,0,.82-.23,1.6,1.6,0,0,0,.76-.76,2.72,2.72,0,0,0,.38.29,3,3,0,0,0,1.44.47h.6c.13,0,.24,0,.38,0l.34,0,.25,0a6.74,6.74,0,0,0,2.53-.83,4.52,4.52,0,0,0,2-2.75,9.2,9.2,0,0,0,.25-1.44c0-.84.05-1.38.07-1.63a3.85,3.85,0,0,1,.28-1.36,1.73,1.73,0,0,1,.77-.88v0A1.5,1.5,0,0,1,168.7,168.55ZM164.54,174c-.08,1.34-.65,2.06-1.71,2.18a2.94,2.94,0,0,1-.6,0,1.36,1.36,0,0,1-.29-.06c-.37-.15-.58-.56-.66-1.25h0v-.15a28.57,28.57,0,0,1-.24-3.31,7,7,0,0,1,.11-1.46,2.41,2.41,0,0,1,.45-1.11v0l-.17,0c-.55-.33-.92-1.38-1.11-3.17l-.12-1.11a2.2,2.2,0,0,1,.09-1c.15-.36.55-.57,1.22-.64q1.94-.21,2.25,2.82l.75,7.14A7.37,7.37,0,0,1,164.54,174Z" style="fill:#fff"/><path d="M180.83,173.59a6.57,6.57,0,0,0-.39-1.91,3.33,3.33,0,0,0-1.41-1.43c-.17,0-.24.14-.22.37a1,1,0,0,0,0,.19,12.61,12.61,0,0,1,.36,1.63,2.38,2.38,0,0,1-.06.94,1.51,1.51,0,0,1-.76.91,4.58,4.58,0,0,1-1.63.56l-.22,0a1.23,1.23,0,0,1-1.18-.35,1,1,0,0,1-.23-.48s0,0,0,0a8,8,0,0,1-.22-1.3v-.08l-.15-1.43,0-.14-.25-2.45.3,0a11.46,11.46,0,0,1,1.77-.09l.4,0,.1,0a3.13,3.13,0,0,1,1.06.33h0v0a2.2,2.2,0,0,0-.26-.91,1,1,0,0,0-.18-.18l-.07-.07a1,1,0,0,0-.33-.15,1.5,1.5,0,0,0,.63-1.51h0a4.18,4.18,0,0,1-2.35.87l-.38,0-.87.08-.38-3.56a3.47,3.47,0,0,1,0-1,1.19,1.19,0,0,1,.37-.72,3,3,0,0,1,1.61-.63,3.73,3.73,0,0,1,1.47.13,1.77,1.77,0,0,1,1.16,1.51,3.59,3.59,0,0,1,0,.68,12.27,12.27,0,0,0-.18,1.4.47.47,0,0,0,.18.31h0a1.08,1.08,0,0,0,.74-.41,2.18,2.18,0,0,0,.7-2v-.21l0-.17c0-.21-.06-.49-.1-.83a2.26,2.26,0,0,1,.73-1.62q-.08-.1-.84-.09a1.9,1.9,0,0,0-1.27.74,6.23,6.23,0,0,0-3.36-.58l-.29,0a3.47,3.47,0,0,0-2.78,1.34,1.81,1.81,0,0,0-1.66-.63h-.06a3.29,3.29,0,0,0-.71.19,2.21,2.21,0,0,0-1.19,1.11v.11a3.48,3.48,0,0,1,1.62.09,1.27,1.27,0,0,1,.53,1.08l.08.73a13.08,13.08,0,0,1,.12,2.87,1.81,1.81,0,0,1-.52,1.09,2.42,2.42,0,0,1-.65.4v0a1.78,1.78,0,0,1,.94.37,1.84,1.84,0,0,1,.49.8,23.88,23.88,0,0,1,.66,4.43c0,.09,0,.17,0,.25v.18a1.68,1.68,0,0,1-.13.5,1.41,1.41,0,0,1-.89.48l-.22.05c-.18,0-.38.06-.6.09,0,0,0,0,0,0v.08a.05.05,0,0,0,0,0c.05.07.11.12.16.18l.09.09a2,2,0,0,0,1,.54,1.81,1.81,0,0,0,.66.05l.26,0a2.83,2.83,0,0,0,.82-.21,1.78,1.78,0,0,0,.31-.23l.15-.15a1.44,1.44,0,0,0,.25-.39l.08.06,0,0a3.54,3.54,0,0,0,2.74.67l.28,0a4.86,4.86,0,0,0,1.95-.6,7.5,7.5,0,0,0,1.12-.82h0l.18.1a2.07,2.07,0,0,0,1.43.43h.16l.24,0c.24,0,.39-.07.42-.14-.22-.17-.39-.3-.49-.39A2.37,2.37,0,0,1,180.83,173.59Z" style="fill:#fff"/><path d="M195.5,172.82a2.08,2.08,0,0,1-1.18-.13c-.31-.16-.5-.62-.58-1.37l-.36-3.42a2.09,2.09,0,0,0-.66-1.4,2.91,2.91,0,0,0-1-.52,5.7,5.7,0,0,0-1.08-.19h0a3.59,3.59,0,0,0,1.62-1.35,13.4,13.4,0,0,0,.41-1.28,1.81,1.81,0,0,1,.65-1.05h0l-.14-.05a1.73,1.73,0,0,1-.7-.84,3.71,3.71,0,0,0-.79-1.42,4.64,4.64,0,0,0-4-1.15l-.28,0a7.27,7.27,0,0,0-1,.16l0,0a5.66,5.66,0,0,0-1.59.61l-.14.11a1.93,1.93,0,0,0-.5.49,2.2,2.2,0,0,0-.83-.46l-.05,0a2.69,2.69,0,0,0-.95-.07,2.64,2.64,0,0,0-1.39.55,1.07,1.07,0,0,0-.41.63v.13l0,0a3.21,3.21,0,0,1,1.64.11.89.89,0,0,1,.14.13l.05.05a.82.82,0,0,1,.19.32,4.51,4.51,0,0,1,.2,1.12c.05.44.11,1,.19,1.71v.06a.32.32,0,0,1,0,.08v.15a3.4,3.4,0,0,1-.09,1.59,1.24,1.24,0,0,1-.68.6v0a.9.9,0,0,1,.51.23c.36.24.61,1,.75,2.32v.06a.49.49,0,0,0,0,.15v.12c.19,1.83.28,2.74.27,2.74a1.84,1.84,0,0,1-.15,1.27q-.3.42-1.68.57v.14s.07.1.19.22a2.56,2.56,0,0,0,2,.69,1.85,1.85,0,0,0,1.53-1.06,2.29,2.29,0,0,0,1.92.7,2.57,2.57,0,0,0,1.09-.39,1.77,1.77,0,0,0,.71-.94l0-.11v0a3.66,3.66,0,0,1-1.59-.07c-.33-.14-.53-.51-.59-1.11l-.53-5,.88-.09c1.19-.13,1.87-.11,2.05,0s.5.57.59,1.41l.62,5.9v0a2.38,2.38,0,0,0,1.66-1.07,1.84,1.84,0,0,0,1.49.58,2.06,2.06,0,0,0,1-.4,2,2,0,0,0,.6-.71l0-.15Zm-6.09-8.36c-.14.62-.81,1-2,1.13l-.93.09-.41-3.89a2,2,0,0,1,.11-1c.15-.36.57-.57,1.23-.64a2.36,2.36,0,0,1,1,.07c.58.19.92.73,1,1.61l.16,1.55A2.57,2.57,0,0,1,189.41,164.46Z" style="fill:#fff"/><path d="M207.16,168a2.65,2.65,0,0,1-.51-.71l0-.08A9.54,9.54,0,0,0,206,166a3.1,3.1,0,0,0-.91-.83l-.07-.05a4.9,4.9,0,0,0-1.12-.44.85.85,0,0,1,.23-.13,4.61,4.61,0,0,0,1.27-1.07,2,2,0,0,0,.4-.79,4.49,4.49,0,0,1,.55-1.67l.17-.12a3.81,3.81,0,0,1-.4-.29,1.57,1.57,0,0,1-.45-.82,2.53,2.53,0,0,0-.43-.86,2.86,2.86,0,0,0-.77-.73,5.94,5.94,0,0,0-3.78-.57l-.29,0a4.43,4.43,0,0,0-2.14.71,2.29,2.29,0,0,0-.56.59,1.86,1.86,0,0,0-1.83-.62,2.12,2.12,0,0,0-1.23.57c-.31.31-.46.53-.47.65v.14l0,0a3.06,3.06,0,0,1,1.62.12,1,1,0,0,1,.37.53,11.09,11.09,0,0,1,.27,1.89,4.36,4.36,0,0,1-.37,2.9,1.18,1.18,0,0,1-.66.44v0a1.42,1.42,0,0,1,.43.12c.68.34,1.12,1.49,1.33,3.45l.17,1.79a1.9,1.9,0,0,1-.11,1.07c-.17.32-.72.53-1.67.63,0,0,0,0,0,0l0,.2c0,.05.08.12.23.22a3.09,3.09,0,0,0,1.93.47h.14a1.51,1.51,0,0,0,1.27-.91l.3.26a2.86,2.86,0,0,0,.88.36,4.38,4.38,0,0,0,1.64.1l.27,0,.89-.13a6.69,6.69,0,0,0,2.11-.72,3.21,3.21,0,0,0,1.48-1.82,4.1,4.1,0,0,0,.16-1.05,3.56,3.56,0,0,1,.19-.89.88.88,0,0,1,.47-.51v0A.77.77,0,0,1,207.16,168Zm-7.23-3.61-.4-3.84a2,2,0,0,1,.08-.94c.17-.34.58-.55,1.24-.62a2.05,2.05,0,0,1,1.11.12c.31.16.51.69.61,1.61l.14,1.38a2.82,2.82,0,0,1-.08,1.25,1.2,1.2,0,0,1-.5.57,5.81,5.81,0,0,1-2.19.46Zm2.26,7.57a2.24,2.24,0,0,1-.87-.07l-.09-.06a1.35,1.35,0,0,1-.64-1.14L200.1,166l.33,0a3.36,3.36,0,0,1,2,.15,1.09,1.09,0,0,1,.4.32,4,4,0,0,1,.52,1.94s0,.07,0,.12l.08.81a5.19,5.19,0,0,1,0,2.08C203.28,171.72,202.87,171.93,202.19,172Z" style="fill:#fff"/><path d="M218.64,156.7a.42.42,0,0,0-.11-.17,1.28,1.28,0,0,0-1.21-.66,1.47,1.47,0,0,0-.67.24,1.21,1.21,0,0,0-.35.43,1.42,1.42,0,0,0-1.25-.52H215a1.37,1.37,0,0,0-.42.12,1.63,1.63,0,0,0-.54.35,1,1,0,0,0-.31.82s0,0,0,0,0,0,0,0l.34,0a1.94,1.94,0,0,1,.35,0c.26,0,.39.14.41.32v0a.82.82,0,0,1-.06.38c-.09.24-.58,1.47-1.46,3.66h0c-.05-.09-.33-.55-.84-1.36l-.75-1.21a3.69,3.69,0,0,1-.56-1.06V158c.1-.25.43-.4,1-.46l.38,0s0,0,0,0v-.13l-.13-.17a2.56,2.56,0,0,0-.84-.57,1.69,1.69,0,0,0-.8-.11h-.12a1.83,1.83,0,0,0-1.36.93,2,2,0,0,0-.44-.3,1.91,1.91,0,0,0-1.14-.24h0a2.28,2.28,0,0,0-1.14.46,1.4,1.4,0,0,0-.53.71v.09s0,0,0,0h.06a3.2,3.2,0,0,1,.69,0,1.93,1.93,0,0,1,1,.64l.21.29c.46.62,1,1.38,1.53,2.29l.23.36a4,4,0,0,1,.79,1.51v.06a.85.85,0,0,1-.3.73s0,0,0,0a1.22,1.22,0,0,1,.42.15.78.78,0,0,1,.24.19,3,3,0,0,1,.65,1.92l.32,3a2.16,2.16,0,0,1-.09,1.24c-.16.34-.69.56-1.59.65h-.07c-.07,0-.11,0-.1,0v.1a2.66,2.66,0,0,0,2.18,1,1.9,1.9,0,0,0,1.5-1.09h0l0,0a2.08,2.08,0,0,0,1.67.73h.14a2.33,2.33,0,0,0,1.27-.64,2.9,2.9,0,0,0,.54-.72v-.12s0,0-.12,0h0a3.1,3.1,0,0,1-1.36-.09c-.34-.14-.54-.52-.61-1.15l-.38-3.64a2,2,0,0,1,.7-2.07l.19-.1a1.39,1.39,0,0,1-.57-.92,1.66,1.66,0,0,1,0-.44c0-.06.55-1.39,1.65-4a1.89,1.89,0,0,1,1.71-1.27h0s0,0,0,0Z" style="fill:#fff"/><path d="M38.06,191.34a1.46,1.46,0,0,1-.39-.21l.06,0a3.23,3.23,0,0,0,.53-.91,4.75,4.75,0,0,0,.25-1h0l-.33.11a12.11,12.11,0,0,1-3.13.66l-5.59.59a3.31,3.31,0,0,1,0-.52,3.12,3.12,0,0,1,.67-1.47,9.22,9.22,0,0,1,1.14-1.14,2.75,2.75,0,0,1,1.75-.87,2.72,2.72,0,0,1,1.2.14h0a3.31,3.31,0,0,1-.16-.64,1.63,1.63,0,0,1,.39-1.27A16.25,16.25,0,0,0,36,183.28c.06-.08.13-.14.19-.22a6.69,6.69,0,0,0,1.14-1.74,6,6,0,0,0,.47-3.08l0-.2h0a5.35,5.35,0,0,0-.34-1.42,4.84,4.84,0,0,0-2-2.38l-.46-.21a6.52,6.52,0,0,0-3.25-.72c-.1,0-.2,0-.3,0l-.2,0a6.25,6.25,0,0,0-1.82.5,7.84,7.84,0,0,0-1.91,1.23h0a2.68,2.68,0,0,0-1.59-.6l-.11,0c-.59.13-.88.25-.87.34v0a4.9,4.9,0,0,1,.49.45,1.89,1.89,0,0,1,.43,1c0,.25,0,.47,0,.65a6.39,6.39,0,0,0-.13,1.54l0,.19a3.31,3.31,0,0,0,.28,1,2.09,2.09,0,0,0,2.26,1.22h.06c.29,0,.42-.15.4-.38v0a.47.47,0,0,0-.1-.09,2.28,2.28,0,0,1-1.08-1.81v-.1a2.39,2.39,0,0,1,.51-1.76,2.89,2.89,0,0,1,2-1.05l.52,0a2,2,0,0,1,1,.2,3,3,0,0,1,1.24,2.44l0,.19a3.81,3.81,0,0,1,0,.59,7.37,7.37,0,0,1-.26,1.59,4.51,4.51,0,0,1-.63,1.53,1.87,1.87,0,0,1-1.42,1.19h-.11a4.28,4.28,0,0,1-.72,0h0a1.41,1.41,0,0,1,.22.57c.06.57-.35,1.3-1.23,2.2a13,13,0,0,0-1.4,1.67,11.34,11.34,0,0,0-.93,2.1,7.11,7.11,0,0,0-.1,2.85l.12,1.19s0,0,0,0l13-1.36,0,0a.26.26,0,0,1-.07-.12A3.62,3.62,0,0,0,38.06,191.34Z" style="fill:#fff"/><path d="M56,189.48h0a2.35,2.35,0,0,1-2.29-.68q-.13-.13-3.37-5.27a2.51,2.51,0,0,1-.53-1.05,1.28,1.28,0,0,1,.58-1.23v0a1.13,1.13,0,0,1-.92-1.06,1.59,1.59,0,0,1,0-.39c0-.22.39-1.33,1.06-3.34a9.47,9.47,0,0,1,.72-2,2.72,2.72,0,0,1,2.44-1.51h.08s0,0,0,0l0-.12a1.34,1.34,0,0,0-.33-.53,1.68,1.68,0,0,0-1.41-.58h-.17a1.79,1.79,0,0,0-1.28.86,1.94,1.94,0,0,0-1.52-.52,2.11,2.11,0,0,0-.55.14c-.71.36-1,.82-1,1.38a0,0,0,0,0,0,0l.16,0c.45,0,.69.11.71.34a3.46,3.46,0,0,1-.06.46q-1.29,3.94-1.32,4c-.57-.89-1.18-1.85-1.83-2.85a4.4,4.4,0,0,1-.65-1.16c0-.28.17-.44.59-.48l1-.1s0,0,0,0v-.06a1.4,1.4,0,0,0-.39-.5,2.43,2.43,0,0,0-1.83-.55,2,2,0,0,0-.61.16,1.67,1.67,0,0,0-.93.87h0a2.19,2.19,0,0,0-2-.73,3.2,3.2,0,0,0-1.34.48c-.5.41-.73.76-.7,1.06v.09s0,0,0,0h.07a3.71,3.71,0,0,1,1.27,0,2.13,2.13,0,0,1,1.06.75q.22.27,2.75,4.26a3.51,3.51,0,0,1,.66,1.31v0a1.24,1.24,0,0,1-.49,1v0c.52.12.79.36.83.71v.08a1.43,1.43,0,0,1,0,.39c0,.15-.3.93-.78,2.29-.23.69-.52,1.52-.87,2.52-.14.4-.28.82-.44,1.27a2.86,2.86,0,0,1-.5,1,2.55,2.55,0,0,1-1.81.92h0l0,.21a1,1,0,0,0,.21.44,1.7,1.7,0,0,0,1.48.57l.15,0a1.77,1.77,0,0,0,1-.49,2,2,0,0,0,.25-.3.8.8,0,0,0,.18-.31h0A1.54,1.54,0,0,0,45,192a2.22,2.22,0,0,0,1.12-.45l.15-.15a1,1,0,0,0,.36-.74l0-.21h-.11a4.49,4.49,0,0,1-.7,0c-.37,0-.57-.13-.59-.36a2,2,0,0,1,.12-.77c.2-.64.38-1.19.54-1.69.61-1.91.93-2.91,1-3l2,3.34a4.38,4.38,0,0,1,.71,1.33.64.64,0,0,1-.05.38,1,1,0,0,1-.55.4l-.41.11,0,.17v0a1.11,1.11,0,0,0,.35.44,2.14,2.14,0,0,0,.38.23,2.41,2.41,0,0,0,1.31.25,1.89,1.89,0,0,0,1.61-1.07h0a.21.21,0,0,0,0,.06,1.83,1.83,0,0,0,1.74.73l.18,0a2.52,2.52,0,0,0,1.43-.67c.29-.34.42-.59.4-.76v-.18Z" style="fill:#fff"/><path d="M67.73,183.85c0-.24-.24-.51-.65-.82l.14-.18a3,3,0,0,0,.35-1.26h0a3,3,0,0,1-1.77.72l-1.11.06h0l-.41-3.83v0l0-.15-.07-.66-.09-.85-.18-1.75V175l-.12-1.17a2.23,2.23,0,0,1,.19-1.52c.22-.3.83-.5,1.83-.61h.11a0,0,0,0,0,0,0l0-.16c-.05-.06-.08-.1-.08-.12a2.41,2.41,0,0,0-2.22-1h-.15a3.29,3.29,0,0,0-.9.26,2.13,2.13,0,0,0-1,1.05h0a2.28,2.28,0,0,0-1.6-.81h-.07a4.75,4.75,0,0,0-.84,0l-.22,0,0,0a1.19,1.19,0,0,1,.16.54v.08a3.09,3.09,0,0,1-.12.87,4.9,4.9,0,0,0-.18.46l0,0c-.11.3-.21.61-.31,1a46.11,46.11,0,0,1-2.9,7.18c-.3.59-.68,1.29-1.16,2.12a7.64,7.64,0,0,0-.48.81l.16,1.52h0l6.92-.73.17,1.69a6.5,6.5,0,0,1,.06,1,1.55,1.55,0,0,1-.18.77c-.21.35-.87.58-2,.7,0,0,0,0,0,0l0,.16a1.27,1.27,0,0,0,.27.41,2.27,2.27,0,0,0,2,.66h.14A2.93,2.93,0,0,0,62,190a2.44,2.44,0,0,0,1.3-1.08s0,0,0,0a2.48,2.48,0,0,0,2.14.83l.16,0a2.52,2.52,0,0,0,1.14-.42,2,2,0,0,0,.87-1.19v-.13s0,0,0,0h0a4,4,0,0,1-1.79-.09c-.38-.13-.62-.66-.71-1.59l-.17-1.52,0-.48,1.19-.14a3.33,3.33,0,0,1,1.8.22h0v-.05A2.21,2.21,0,0,0,67.73,183.85Zm-7.12-1.12-3.7.39q.41-.62.81-1.38a24.46,24.46,0,0,0,1-2.39c.2-.54.39-1.09.57-1.67s.37-1.25.54-1.91h0l.2,1.92.34,3.26Z" style="fill:#fff"/><path d="M88.12,184.1a2,2,0,0,1-1.18-.12c-.3-.17-.5-.63-.58-1.37L86,179.19a2,2,0,0,0-.66-1.4,1.63,1.63,0,0,0-.17-.11,2.52,2.52,0,0,0-.82-.41,5.68,5.68,0,0,0-1.09-.19h0a3.58,3.58,0,0,0,1.63-1.36c.09-.23.23-.65.4-1.27a2,2,0,0,1,.65-1.06h0l-.14,0a1.67,1.67,0,0,1-.69-.84,3.63,3.63,0,0,0-.8-1.42,4.64,4.64,0,0,0-4-1.16l-.28,0a6.32,6.32,0,0,0-2.6.8,2.1,2.1,0,0,0-.64.59,2.29,2.29,0,0,0-1.83-.54,2.6,2.6,0,0,0-1.4.55,1,1,0,0,0-.4.62v.13l0,0a3.36,3.36,0,0,1,1.64.11,1,1,0,0,1,.38.51,17.31,17.31,0,0,1,.39,2.86c0,.06,0,.09,0,.11s0,0,0,.1v0a3.47,3.47,0,0,1-.1,1.59,1.05,1.05,0,0,1-.18.25,1.33,1.33,0,0,1-.49.36v0a1,1,0,0,1,.52.24c.36.24.61,1,.75,2.32v0a1.16,1.16,0,0,0,0,.16V181l.27,2.73a2.46,2.46,0,0,1-.07,1.12h0c0,.05-.05.1-.08.14a1.79,1.79,0,0,1-1.11.49c-.17,0-.36.06-.58.08v.15s.06.1.19.21a2.54,2.54,0,0,0,2,.69,1.06,1.06,0,0,0,.19,0,1.77,1.77,0,0,0,1.12-.69h0c.07-.1.14-.19.21-.31a2.24,2.24,0,0,0,1.91.69,2.64,2.64,0,0,0,1.09-.38,1.71,1.71,0,0,0,.71-1v-.13a3.8,3.8,0,0,1-1.59-.07q-.51-.21-.6-1.11l-.52-5,.87-.09c1.19-.13,1.88-.11,2.06.05s.49.57.58,1.4l.62,5.9,0,0a2.31,2.31,0,0,0,1.65-1.06,1.89,1.89,0,0,0,1.5.58,2.1,2.1,0,0,0,1-.4,2,2,0,0,0,.59-.71v-.16ZM78.78,172c.16-.35.57-.56,1.24-.63a2.15,2.15,0,0,1,.94.07c.59.19.93.72,1,1.6l.16,1.55a2.54,2.54,0,0,1-.1,1.12c-.15.63-.82,1-2,1.13l-.93.1-.41-3.9A2.08,2.08,0,0,1,78.78,172Z" style="fill:#fff"/><path d="M111.33,180.89a6.66,6.66,0,0,0-.39-1.87,3.09,3.09,0,0,0-1.26-1.34l-.15-.1a.26.26,0,0,0-.17.1.2.2,0,0,0,0,.15,5.77,5.77,0,0,1,.5,1.62v.14l0,0v.06a2.37,2.37,0,0,1-.13,1.08,2.55,2.55,0,0,1-2.35,1.41h0l-.38,0a0,0,0,0,0,0,0A1.3,1.3,0,0,1,106,182a.41.41,0,0,1-.22-.2,4.12,4.12,0,0,1-.38-1.6l-.26-2.47v0a8.62,8.62,0,0,1-.07-1.25,1.67,1.67,0,0,1,.28-1,1.1,1.1,0,0,1,.54-.38h0a2.85,2.85,0,0,1-.77-.64,3.63,3.63,0,0,1-.52-1.81c-.18-1.8-.26-2.69-.23-2.7a1.13,1.13,0,0,1,.18-.63c.19-.28.76-.46,1.7-.56h0s0,0,0,0v0l0-.09a1.84,1.84,0,0,0-.51-.48,2.64,2.64,0,0,0-1.62-.34,2,2,0,0,0-1.6,1,1.54,1.54,0,0,0-.31-.34,2.15,2.15,0,0,0-1.28-.3l-.15,0a2.41,2.41,0,0,0-.9.28,1.89,1.89,0,0,0-.95,1v.06a0,0,0,0,0,0,0,3.58,3.58,0,0,1,1.55.06c.31.12.51.5.58,1.13l.11,1a13.58,13.58,0,0,1,.11,2.34,2,2,0,0,1-.38,1.12,2.23,2.23,0,0,1-.81.56v0l.21,0a1.45,1.45,0,0,1,.74.33,1.87,1.87,0,0,1,.48.79,2.92,2.92,0,0,1,.19.78c.13.72.28,1.94.46,3.64a1.53,1.53,0,0,1-.16.94c-.17.29-.74.49-1.68.59a0,0,0,0,0,0,0V183s0,0,0,0a2,2,0,0,0,1.86.86l.27,0a2.52,2.52,0,0,0,.81-.22,1.57,1.57,0,0,0,.71-.75.74.74,0,0,1,.16.14,5.43,5.43,0,0,0,.53.35,4.2,4.2,0,0,0,.5.17,4.94,4.94,0,0,0,1.65.09l.28,0a4.71,4.71,0,0,0,2-.61,7.85,7.85,0,0,0,1.11-.81h0l.17.11a2.12,2.12,0,0,0,1.44.42l.15,0,.23,0c.25,0,.4-.06.44-.12-.23-.17-.4-.3-.5-.39A2.29,2.29,0,0,1,111.33,180.89Z" style="fill:#fff"/><path d="M123.51,179.61a6.66,6.66,0,0,0-.39-1.87l0-.06a3.24,3.24,0,0,0-1.37-1.38c-.16,0-.23.12-.22.25a6.78,6.78,0,0,1,.4,1.13,3.28,3.28,0,0,1,.1.49v.14l0,0v.06a2.37,2.37,0,0,1-.13,1.08,2.55,2.55,0,0,1-2.35,1.41h0l-.38,0a0,0,0,0,0,0,0,1.35,1.35,0,0,1-.93-.21c-.29-.09-.49-.69-.61-1.8l-.12-1.19-.14-1.3a8.8,8.8,0,0,1-.07-1.26,1.67,1.67,0,0,1,.28-1,1.1,1.1,0,0,1,.54-.38h0a2.85,2.85,0,0,1-.77-.64,3.63,3.63,0,0,1-.52-1.81c-.18-1.8-.26-2.7-.23-2.7a1.05,1.05,0,0,1,.18-.63c.19-.28.76-.46,1.7-.56h0s0,0,0,0v0a.42.42,0,0,0,0-.09,1.84,1.84,0,0,0-.51-.48,2.64,2.64,0,0,0-1.62-.34,2,2,0,0,0-1.6,1,1.54,1.54,0,0,0-.31-.34,2.15,2.15,0,0,0-1.28-.3l-.15,0a2.41,2.41,0,0,0-.9.28,2,2,0,0,0-1,1v.06s0,0,0,0a3.48,3.48,0,0,1,1.53.06c.32.12.52.5.6,1.13l.1,1a13.58,13.58,0,0,1,.11,2.34,2.1,2.1,0,0,1-.38,1.12,2.23,2.23,0,0,1-.81.56v0l.21,0a1.45,1.45,0,0,1,.74.33,2,2,0,0,1,.48.79,9.29,9.29,0,0,1,.38,2.06c.08.64.17,1.42.27,2.36a1.53,1.53,0,0,1-.16.94c-.17.29-.74.49-1.68.59,0,0,0,0,0,0v.08s0,0,0,0a2,2,0,0,0,1.86.86l.27,0a2.52,2.52,0,0,0,.81-.22,1.57,1.57,0,0,0,.71-.75.74.74,0,0,1,.16.14,5.43,5.43,0,0,0,.53.35,4.28,4.28,0,0,0,2.15.26l.28,0a4.71,4.71,0,0,0,2-.61,7.85,7.85,0,0,0,1.11-.81h0l.17.11a2.11,2.11,0,0,0,1.43.42l.16,0,.23,0c.25,0,.4-.06.43-.12l-.5-.39A2.26,2.26,0,0,1,123.51,179.61Z" style="fill:#fff"/><path d="M135.74,178.32c0-.23-.05-.45-.08-.64a5.44,5.44,0,0,0-.31-1.26,3.36,3.36,0,0,0-1.42-1.43c-.17,0-.24.14-.22.37l0,.19c.21.84.33,1.38.36,1.63a2.8,2.8,0,0,1,0,.5,2.13,2.13,0,0,1-.07.44,1.52,1.52,0,0,1-.77.91,4.51,4.51,0,0,1-1.63.56l-.22,0a1.24,1.24,0,0,1-1.18-.35,3.22,3.22,0,0,1-.43-1.59l0-.23-.43-4.1.3,0a13.33,13.33,0,0,1,1.77-.1,3.33,3.33,0,0,1,1.56.38h0v0a2.22,2.22,0,0,0-.25-.91,1,1,0,0,0-.58-.4,1.5,1.5,0,0,0,.62-1.51h0a4.12,4.12,0,0,1-2.35.87l-.37,0-.88.08-.37-3.56a3.47,3.47,0,0,1,0-1,1.07,1.07,0,0,1,.37-.72,3,3,0,0,1,1.61-.63,3.77,3.77,0,0,1,1.47.13,1.76,1.76,0,0,1,1.15,1.51,3.7,3.7,0,0,1,0,.68,12.27,12.27,0,0,0-.18,1.4.4.4,0,0,0,.18.31h0a1.1,1.1,0,0,0,.74-.41,2.2,2.2,0,0,0,.69-2v-.1a.13.13,0,0,1,0-.06l0-.05,0-.17c0-.21-.05-.49-.09-.83a2.29,2.29,0,0,1,.72-1.62c-.05-.07-.32-.1-.84-.09a1.86,1.86,0,0,0-1.26.74,6.26,6.26,0,0,0-3.36-.58l-.29,0a3.48,3.48,0,0,0-2.78,1.35,1.83,1.83,0,0,0-1.66-.63h-.07a3.07,3.07,0,0,0-.7.19,2.27,2.27,0,0,0-1.2,1.11v.09l0,0a3.48,3.48,0,0,1,1.62.09,1.27,1.27,0,0,1,.53,1.08l.07.73a13.08,13.08,0,0,1,.12,2.87,1.76,1.76,0,0,1-.52,1.09,2.23,2.23,0,0,1-.64.4v0a1.81,1.81,0,0,1,1,.37,1.93,1.93,0,0,1,.48.8,16.62,16.62,0,0,1,.54,3.37c0,.33.08.68.12,1.06a1.7,1.7,0,0,1-.14.93c-.17.31-.74.52-1.7.62,0,0,0,0,0,0v.08s0,0,0,0a2,2,0,0,0,1.87.86l.27,0a3.3,3.3,0,0,0,.82-.21,1.66,1.66,0,0,0,.71-.77,3.51,3.51,0,0,0,2.85.76l.28,0a4.86,4.86,0,0,0,1.95-.6,7.51,7.51,0,0,0,1.13-.82h0l.18.1a2.07,2.07,0,0,0,1.43.43h.15a1,1,0,0,0,.25,0c.24,0,.38-.07.42-.14-.23-.17-.39-.3-.49-.39A2.26,2.26,0,0,1,135.74,178.32Z" style="fill:#fff"/><path d="M107.54,211a.51.51,0,0,1-.13-.13,1,1,0,0,1-.13-.35,3.42,3.42,0,0,0-.14-.63,1.23,1.23,0,0,0-.31-.47,2.26,2.26,0,0,0-.42-.31l.11,0a2.26,2.26,0,0,0,.65-.31,1,1,0,0,0,.25-.29,2,2,0,0,1,.41-.64l.09,0-.14-.17a.75.75,0,0,1-.1-.39,1,1,0,0,0-.08-.41,1.4,1.4,0,0,0-.25-.39,2.54,2.54,0,0,0-1.52-.66h-.13a1.89,1.89,0,0,0-1,.06.76.76,0,0,0-.3.19.81.81,0,0,0-.7-.46.9.9,0,0,0-.58.1c-.16.1-.25.17-.27.22v.08a1.27,1.27,0,0,1,.67.22.42.42,0,0,1,.1.26,5.1,5.1,0,0,1-.1.83,1.81,1.81,0,0,1-.47,1.17.48.48,0,0,1-.32.12h0a.55.55,0,0,1,.16.1q.38.33.18,1.59L103,211a.83.83,0,0,1-.16.44c-.11.12-.36.14-.77.08,0,0,0,0,0,0v.08a.26.26,0,0,0,.07.12,1.34,1.34,0,0,0,.76.41h.06a.63.63,0,0,0,.63-.24l.1.14a1.71,1.71,0,0,0,1,.47l.11,0a3.36,3.36,0,0,0,1.36,0,1.41,1.41,0,0,0,.82-.6,2.32,2.32,0,0,0,.18-.42,1.21,1.21,0,0,1,.18-.36.36.36,0,0,1,.25-.16Zm-1.77-.36,0,.35a2.32,2.32,0,0,1-.24.87c-.1.13-.29.18-.58.13a.82.82,0,0,1-.36-.13.55.55,0,0,1-.18-.58l.31-2,.14,0a1.52,1.52,0,0,1,.83.28.52.52,0,0,1,.13.18A1.88,1.88,0,0,1,105.77,210.59Zm.25-2.21a.56.56,0,0,1-.27.18,2.62,2.62,0,0,1-1-.05h0l.25-1.65a.89.89,0,0,1,.14-.39.65.65,0,0,1,.59-.12.86.86,0,0,1,.45.17c.11.1.14.34.08.74l-.09.6A1.22,1.22,0,0,1,106,208.38Z" style="fill:#fff"/><path d="M111.53,207.11a2.08,2.08,0,0,0-1.19-.56h-.08a2,2,0,0,0-1.24.26,1.55,1.55,0,0,0-.78,1.19,1.5,1.5,0,0,0,.33,1.14,2.16,2.16,0,0,0,.32.31,3.51,3.51,0,0,1,.34.23.82.82,0,0,1,.43.82c0,.08,0,.16,0,.25h0a1.22,1.22,0,0,1,.56-.12h0a.48.48,0,0,1,.26.12,1,1,0,0,1,.29.7v.06a.74.74,0,0,1-.22.44.84.84,0,0,1-.3.18,1.21,1.21,0,0,1-.55,0h0a1.24,1.24,0,0,1-.57-.21,1,1,0,0,1-.29-.28,1,1,0,0,1-.16-.66.46.46,0,0,1,.06-.18,1.62,1.62,0,0,0,.1-.23c0-.07,0-.1-.12-.11a.43.43,0,0,0-.23.05.83.83,0,0,0-.46.78,1.5,1.5,0,0,0,0,.3,1,1,0,0,1-.32.59l-.1.08v0s.08.06.22.07h.07a.73.73,0,0,0,.32-.06l.31-.2a.64.64,0,0,0,.14.12,1.87,1.87,0,0,0,1.15.51h.08a2,2,0,0,0,1.2-.22,1.64,1.64,0,0,0,.85-1.33v-.05a1.52,1.52,0,0,0-.08-.78,1.29,1.29,0,0,0-.28-.42.83.83,0,0,1-.31-.7h0a1,1,0,0,1,.08-.29h0a.81.81,0,0,1-.53.12h0a.75.75,0,0,1-.31-.08,2.14,2.14,0,0,1-.47-.36,1,1,0,0,1-.41-.82,1.19,1.19,0,0,1,.09-.36.66.66,0,0,1,.71-.31h.07a1.42,1.42,0,0,1,.52.17,1.54,1.54,0,0,1,.31.25.78.78,0,0,1,.22.57v0a.64.64,0,0,1,0,.17,1.09,1.09,0,0,0-.13.29c0,.07,0,.1.09.11a.54.54,0,0,0,.2,0,.81.81,0,0,0,.49-.71s0-.08,0-.14a2.56,2.56,0,0,1,0-.33.52.52,0,0,1,.1-.27.8.8,0,0,1,.28-.3v0s-.09,0-.24-.07A1,1,0,0,0,111.53,207.11Z" style="fill:#fff"/><path d="M121,213a.51.51,0,0,1-.25-.3,12,12,0,0,1-.45-2.19v-.07a.72.72,0,0,1,.08-.35.37.37,0,0,1,.21-.16h0l-.14,0a.56.56,0,0,1-.32-.22,3.35,3.35,0,0,1-.35-1.08,9.13,9.13,0,0,1-.22-1.06.33.33,0,0,1,0-.15q.09-.12.51-.12h.12a.43.43,0,0,0-.06-.15.87.87,0,0,0-.74-.31.93.93,0,0,0-.76.3l-.15-.15a1.14,1.14,0,0,0-.66-.22h-.08a1.19,1.19,0,0,0-.6.17.48.48,0,0,0-.24.36h.17l.2,0c.16,0,.24.1.24.2v0a1.53,1.53,0,0,1-.09.41,7,7,0,0,1-.5,1.48,1.41,1.41,0,0,1-.27.36.58.58,0,0,1-.33.17h0l.11,0q.18.09.18.48a5.58,5.58,0,0,1-.25,1.32,4.77,4.77,0,0,1-.3.9.68.68,0,0,1-.32.31,1.32,1.32,0,0,1-.3.07l-.25,0v0a.37.37,0,0,0,.07.16.72.72,0,0,0,.63.3.63.63,0,0,0,.3-.05.61.61,0,0,0,.33-.3h0a.82.82,0,0,0,.58.32.55.55,0,0,0,.36-.13,1.07,1.07,0,0,0,.25-.3v0a1.57,1.57,0,0,1-.36-.05.28.28,0,0,1-.21-.3s0-.07,0-.18.1-.46.26-1.13H119l.12.57a3.56,3.56,0,0,1,.12.76h0a.31.31,0,0,1-.06.19c-.08.09-.27.13-.58.13h0s0,0,0,0a.92.92,0,0,0,.74.48h0a.71.71,0,0,0,.58-.36l.06.08a1,1,0,0,0,.67.29h0a.75.75,0,0,0,.51-.19.64.64,0,0,0,.18-.31v0h0A1.22,1.22,0,0,1,121,213Zm-3.34-2.31c.41-1.59.62-2.44.65-2.54h0s.17.86.53,2.55Z" style="fill:#fff"/><path d="M125,207.15a2.11,2.11,0,0,0-1.26-.37h-.08a2.11,2.11,0,0,0-1.19.45,1.58,1.58,0,0,0-.59,1.3,1.46,1.46,0,0,0,.51,1.07,2.16,2.16,0,0,0,.36.26l.37.17a.83.83,0,0,1,.54.75,2.25,2.25,0,0,1,0,.26h0a1.13,1.13,0,0,1,.53-.21h0a.57.57,0,0,1,.28.08,1,1,0,0,1,.39.65v.06a.71.71,0,0,1-.15.47,1,1,0,0,1-.27.23,1.26,1.26,0,0,1-.54.12h0a1.15,1.15,0,0,1-.6-.11,1.32,1.32,0,0,1-.33-.23,1.08,1.08,0,0,1-.26-.63.81.81,0,0,1,0-.19,1.07,1.07,0,0,0,.07-.25c0-.06,0-.09-.15-.08a.49.49,0,0,0-.21.08.82.82,0,0,0-.33.84,1.54,1.54,0,0,0,0,.3,1,1,0,0,1-.23.64l-.08.09v0s.09,0,.23,0h.07a.72.72,0,0,0,.31-.11l.27-.24.16.1a1.94,1.94,0,0,0,1.22.32h.08a2.11,2.11,0,0,0,1.15-.39,1.67,1.67,0,0,0,.63-1.46v0a1.58,1.58,0,0,0-.2-.76,1.33,1.33,0,0,0-.34-.37.81.81,0,0,1-.41-.65h0a1.06,1.06,0,0,1,0-.3h0a.82.82,0,0,1-.51.19h0a.81.81,0,0,1-.32,0,2.07,2.07,0,0,1-.52-.29.94.94,0,0,1-.53-.74.92.92,0,0,1,0-.37.64.64,0,0,1,.65-.42H124a1.35,1.35,0,0,1,.89.29.81.81,0,0,1,.3.53v0a.4.4,0,0,1,0,.18.79.79,0,0,0-.08.31c0,.06,0,.09.1.09a.56.56,0,0,0,.19-.07.8.8,0,0,0,.38-.77.62.62,0,0,0,0-.13c-.06-.19-.08-.29-.09-.33a.74.74,0,0,1,0-.29,1,1,0,0,1,.24-.34v0s-.1,0-.26,0A.92.92,0,0,0,125,207.15Z" style="fill:#fff"/><path d="M133.75,211.83c-.1,0-.15-.06-.15-.07h0a1.3,1.3,0,0,0,.17-.33,1.64,1.64,0,0,0,.07-.36h0l-.12,0a4.14,4.14,0,0,1-1.09.28l-2,.28a1.07,1.07,0,0,1,0-.18,1.16,1.16,0,0,1,.21-.53,4.45,4.45,0,0,1,.39-.42,1.06,1.06,0,0,1,.6-.33,1,1,0,0,1,.43,0h0a1.23,1.23,0,0,1-.06-.22.52.52,0,0,1,.12-.45,6.39,6.39,0,0,0,.57-.62,2.09,2.09,0,0,0,.49-1.72v-.07a1.79,1.79,0,0,0-.88-1.31,2.47,2.47,0,0,0-1.42-.27h-.07a2.43,2.43,0,0,0-1.29.66h0a1,1,0,0,0-.57-.18h0c-.21.06-.31.1-.31.14h0a1.29,1.29,0,0,1,.18.16.65.65,0,0,1,.17.34,1.86,1.86,0,0,1,0,.22,2.29,2.29,0,0,0,0,.55v.07a1.42,1.42,0,0,0,.11.35.75.75,0,0,0,.82.4h0c.1,0,.14-.07.13-.15h0l0,0a.82.82,0,0,1-.4-.63v0a.84.84,0,0,1,.16-.63,1,1,0,0,1,.69-.4.9.9,0,0,1,.55,0,1,1,0,0,1,.47.84v.06a2.13,2.13,0,0,1-.06.77,1.54,1.54,0,0,1-.2.55.65.65,0,0,1-.48.44h-.3a.46.46,0,0,1,.09.19c0,.21-.11.47-.4.79a3.54,3.54,0,0,0-.47.62,3.77,3.77,0,0,0-.31.75,2.55,2.55,0,0,0,0,1l.06.42h0l4.56-.66h0l0,0A1.42,1.42,0,0,0,133.75,211.83Z" style="fill:#fff"/><path d="M139.11,207.33a2,2,0,0,1-.22-.35,6,6,0,0,0-.35-.82,3.65,3.65,0,0,0-.42-.62,2.72,2.72,0,0,0-.54-.48,2.81,2.81,0,0,0-.46-.23,2,2,0,0,0-1-.06l-.14,0a2.13,2.13,0,0,0-.65.28,1.74,1.74,0,0,0-.3.26,2.67,2.67,0,0,0-.34.48,3.74,3.74,0,0,0-.23.59,4.33,4.33,0,0,0-.12.86,6,6,0,0,1,0,.62,1.21,1.21,0,0,1-.36.71l.08,0a.94.94,0,0,1,.29.26,2.69,2.69,0,0,1,.32.56,6.83,6.83,0,0,0,.39.87,3.14,3.14,0,0,0,.54.73,2.62,2.62,0,0,0,.41.34,2.18,2.18,0,0,0,.45.21,1.7,1.7,0,0,0,.94.06l.14,0a1.86,1.86,0,0,0,.78-.37,2.21,2.21,0,0,0,.43-.49,3,3,0,0,0,.38-1,4.91,4.91,0,0,0,.06-.74,8.3,8.3,0,0,1,0-.84,1,1,0,0,1,.11-.5.55.55,0,0,1,.17-.2h0A.67.67,0,0,1,139.11,207.33ZM138,210.51c0,.26-.24.42-.57.49a.63.63,0,0,1-.71-.2,1.29,1.29,0,0,1-.15-.3,8.07,8.07,0,0,1-.27-1.08,2.63,2.63,0,0,1-.05-1,.85.85,0,0,1,.14-.34l0,0c-.23-.07-.4-.36-.5-.87,0-.07,0-.11,0-.15a3.48,3.48,0,0,1-.12-1.12c0-.26.24-.42.58-.49a.68.68,0,0,1,.67.15,1.08,1.08,0,0,1,.19.37,8.57,8.57,0,0,1,.25.95V207a1.26,1.26,0,0,1-.15.93h.05c.21.1.38.46.51,1.09,0,.12.06.29.1.51A2.77,2.77,0,0,1,138,210.51Z" style="fill:#fff"/><path d="M143.54,209.62h0a1.39,1.39,0,0,1-.65,0c-.13,0-.24-.2-.32-.5s-.17-.63-.32-1.21a2.19,2.19,0,0,1-.11-1.09.56.56,0,0,1,.13-.22.91.91,0,0,1-.22-.11c-.13-.08-.26-.35-.38-.82l-.19-.72a4.05,4.05,0,0,1-.17-.89,2.54,2.54,0,0,1,0-.48h0a2,2,0,0,0-.44.18.71.71,0,0,0-.36.42l-.12-.09a.86.86,0,0,0-.66-.09h-.07a1.06,1.06,0,0,0-.4.22.66.66,0,0,0-.23.44v.06h0c.4-.11.65-.11.77,0a.53.53,0,0,1,.13.19,2.93,2.93,0,0,1,.21.67l0,.13a3.3,3.3,0,0,1,.18,1.05.83.83,0,0,1-.12.37l.09.05c.18.09.34.4.49.94,0,.18.15.58.31,1.22a1.44,1.44,0,0,1,.08.6q0,.26-.66.42h0s0,0,0,0l0,.07.08.06a1.09,1.09,0,0,0,.87.14.76.76,0,0,0,.57-.52.93.93,0,0,0,.77.18l.06,0a1,1,0,0,0,.51-.33.8.8,0,0,0,.17-.31v-.06A0,0,0,0,0,143.54,209.62Z" style="fill:#fff"/><path d="M147.92,204.37a6.24,6.24,0,0,0-.44-.78A3.36,3.36,0,0,0,147,203a2.12,2.12,0,0,0-.58-.42,2.07,2.07,0,0,0-.48-.18,1.92,1.92,0,0,0-1,0l-.14,0a2.06,2.06,0,0,0-.62.35,1.54,1.54,0,0,0-.27.29,2.09,2.09,0,0,0-.28.51,2.69,2.69,0,0,0-.17.61,3.91,3.91,0,0,0,0,.87,6.07,6.07,0,0,1,.06.61,1.27,1.27,0,0,1-.28.75l.09,0a1,1,0,0,1,.31.23,2.52,2.52,0,0,1,.37.52,8.36,8.36,0,0,0,.48.83,3.39,3.39,0,0,0,.62.67,3,3,0,0,0,.44.29,2.75,2.75,0,0,0,.47.17,2,2,0,0,0,.94,0l.14-.05a1.71,1.71,0,0,0,.73-.45,2.08,2.08,0,0,0,.38-.53,2.62,2.62,0,0,0,.27-1,4.53,4.53,0,0,0,0-.74c-.08-.42-.13-.69-.14-.83a1,1,0,0,1,.06-.51.47.47,0,0,1,.15-.21h0a.63.63,0,0,1-.38-.17A1.55,1.55,0,0,1,147.92,204.37Zm-.57,3.61c0,.26-.19.44-.52.54a.61.61,0,0,1-.72-.12,1,1,0,0,1-.19-.29,7.58,7.58,0,0,1-.37-1,2.47,2.47,0,0,1-.16-1,.73.73,0,0,1,.11-.36h-.05c-.23,0-.43-.32-.59-.81,0-.06,0-.11,0-.15a2.8,2.8,0,0,1-.23-1.1c0-.26.18-.44.52-.54a.66.66,0,0,1,.68.07,1.29,1.29,0,0,1,.23.35c0,.08.15.39.34.92l0,.06a1.27,1.27,0,0,1,0,.94h0c.22.07.43.41.62,1l.16.51A2.74,2.74,0,0,1,147.35,208Z" style="fill:#fff"/><path d="M97.72,206.75a.89.89,0,1,0,1,.81A.88.88,0,0,0,97.72,206.75Z" style="fill:#fff"/><path d="M152.53,202.36a.88.88,0,0,0-.81.95.89.89,0,1,0,.81-.95Z" style="fill:#fff"/></svg>