<svg xmlns="http://www.w3.org/2000/svg" viewBox="0 0 321.64 222.86"><title>iconos-clientes</title><text transform="matrix(1, 0, 0, 1, 0.06, 106.11)" style="font-size:38.07093048095703px;fill:#fff;font-family:BodoniMT-Bold, Bodoni MT;font-weight:700;letter-spacing:0.05189224199519322em">B<tspan x="26.57" y="0" style="letter-spacing:0.08899660583406964em">A</tspan><tspan x="56.54" y="0" style="letter-spacing:0.06996346517147281em">R</tspan><tspan x="85.79" y="0" style="letter-spacing:0.08900943140055387em">TÓ-</tspan><tspan x="157.44" y="0">N</tspan><tspan x="184.01" y="0" style="letter-spacing:0.08899660583406964em">AIARA</tspan></text><text transform="matrix(1, 0, 0, 1, 0.4, 161.1)" style="font-size:37.995269775390625px;fill:#fff;font-family:BodoniMT-Bold, Bodoni MT;font-weight:700;letter-spacing:0.05189276715642768em">N<tspan x="26.52" y="0" style="letter-spacing:0.08899391098520597em">AIARA-</tspan><tspan x="181.42" y="0">B</tspan><tspan x="207.94" y="0" style="letter-spacing:0.08899391098520597em">A</tspan><tspan x="237.85" y="0" style="letter-spacing:0.06996142258533737em">R</tspan><tspan x="267.04" y="0" style="letter-spacing:0.08900676209148542em">TÓ</tspan></text><polygon points="155.53 118.08 152.18 121.45 148.82 118.08 152.18 114.71 155.53 118.08" style="fill:#fff"/><polygon points="155.53 124.82 152.18 128.19 148.82 124.82 152.18 121.45 155.53 124.82" style="fill:#fff"/><polygon points="162.23 118.08 158.88 121.45 155.53 118.08 158.88 114.71 162.23 118.08" style="fill:#fff"/><polygon points="162.23 124.82 158.88 128.19 155.53 124.82 158.88 121.45 162.23 124.82" style="fill:#fff"/><polygon points="148.82 118.08 145.47 121.45 142.12 118.08 145.47 114.71 148.82 118.08" style="fill:#fff"/><polygon points="148.82 124.82 145.47 128.19 142.12 124.82 145.47 121.45 148.82 124.82" style="fill:#fff"/><path d="M26.36,121.84H267.77c3.26,0,6.53,0,9.8,0H278a.39.39,0,0,0,0-.78H36.58c-3.26,0-6.53,0-9.8,0h-.42a.39.39,0,0,0,0,.78Z" style="fill:#fff"/><polygon points="280.02 119.82 278.41 121.45 276.79 119.82 278.41 118.2 280.02 119.82" style="fill:#fff"/><polygon points="280.02 123.08 278.41 124.7 276.79 123.08 278.41 121.45 280.02 123.08" style="fill:#fff"/><polygon points="282.89 121.45 281.63 122.72 280.37 121.45 281.63 120.18 282.89 121.45" style="fill:#fff"/><polygon points="24.4 119.82 26.02 121.45 27.63 119.82 26.02 118.2 24.4 119.82" style="fill:#fff"/><polygon points="24.4 123.08 26.02 124.7 27.63 123.08 26.02 121.45 24.4 123.08" style="fill:#fff"/><polygon points="21.54 121.45 22.79 122.72 24.05 121.45 22.79 120.18 21.54 121.45" style="fill:#fff"/><polygon points="125.27 119.67 127.06 121.45 125.27 123.23 123.48 121.45 125.27 119.67" style="fill:#fff"/><polygon points="128.85 119.67 130.64 121.45 128.85 123.23 127.06 121.45 128.85 119.67" style="fill:#fff"/><polygon points="104.31 119.99 105.78 121.45 104.31 122.91 102.84 121.45 104.31 119.99" style="fill:#fff"/><polygon points="107.24 119.99 108.71 121.45 107.24 122.91 105.78 121.45 107.24 119.99" style="fill:#fff"/><polygon points="83.02 119.99 84.49 121.45 83.02 122.91 81.56 121.45 83.02 119.99" style="fill:#fff"/><polygon points="85.95 119.99 87.42 121.45 85.95 122.91 84.49 121.45 85.95 119.99" style="fill:#fff"/><polygon points="61.74 119.99 63.2 121.45 61.74 122.91 60.27 121.45 61.74 119.99" style="fill:#fff"/><polygon points="64.67 119.99 66.13 121.45 64.67 122.91 63.2 121.45 64.67 119.99" style="fill:#fff"/><polygon points="40.45 119.99 41.91 121.45 40.45 122.91 38.98 121.45 40.45 119.99" style="fill:#fff"/><polygon points="43.38 119.99 44.85 121.45 43.38 122.91 41.91 121.45 43.38 119.99" style="fill:#fff"/><polygon points="260.07 119.67 261.86 121.45 260.07 123.23 258.29 121.45 260.07 119.67" style="fill:#fff"/><polygon points="263.65 119.67 265.44 121.45 263.65 123.23 261.86 121.45 263.65 119.67" style="fill:#fff"/><polygon points="239.11 119.99 240.58 121.45 239.11 122.91 237.65 121.45 239.11 119.99" style="fill:#fff"/><polygon points="242.04 119.99 243.51 121.45 242.04 122.91 240.58 121.45 242.04 119.99" style="fill:#fff"/><polygon points="217.82 119.99 219.29 121.45 217.82 122.91 216.36 121.45 217.82 119.99" style="fill:#fff"/><polygon points="220.76 119.99 222.22 121.45 220.76 122.91 219.29 121.45 220.76 119.99" style="fill:#fff"/><polygon points="196.54 119.99 198 121.45 196.54 122.91 195.07 121.45 196.54 119.99" style="fill:#fff"/><polygon points="199.47 119.99 200.94 121.45 199.47 122.91 198 121.45 199.47 119.99" style="fill:#fff"/><polygon points="175.25 119.99 176.72 121.45 175.25 122.91 173.78 121.45 175.25 119.99" style="fill:#fff"/><polygon points="178.18 119.99 179.65 121.45 178.18 122.91 176.72 121.45 178.18 119.99" style="fill:#fff"/></svg>