<svg xmlns="http://www.w3.org/2000/svg" viewBox="0 0 392.36 220.18"><title>iconos-clientes</title><path d="M57.57,163a6.11,6.11,0,0,0-1.75-1.11,5,5,0,0,0-1.91-.36,4.5,4.5,0,0,0-3.35,1.26,5.24,5.24,0,0,0-.09,6.66,4.16,4.16,0,0,0,3.16,1.21,5.61,5.61,0,0,0,2.11-.38,5.81,5.81,0,0,0,1.81-1.14V172a7.16,7.16,0,0,1-1.88.79,7.83,7.83,0,0,1-2.07.26,7.09,7.09,0,0,1-5.15-1.95,7.08,7.08,0,0,1,0-9.89,7.18,7.18,0,0,1,5.2-1.94,9,9,0,0,1,4,.91Z" style="fill:#fff"/><path d="M68.84,168.36a4.52,4.52,0,0,1-1.38,3.37,5.31,5.31,0,0,1-7,0,4.8,4.8,0,0,1,0-6.75A4.93,4.93,0,0,1,64,163.63,4.85,4.85,0,0,1,67.46,165,4.51,4.51,0,0,1,68.84,168.36Zm-2.6,0a2.35,2.35,0,0,0-.63-1.72,2.26,2.26,0,0,0-1.68-.64,2.21,2.21,0,0,0-1.68.64,2.37,2.37,0,0,0-.62,1.72,2.4,2.4,0,0,0,.62,1.72,2.21,2.21,0,0,0,1.68.65,2.24,2.24,0,0,0,1.68-.65A2.37,2.37,0,0,0,66.24,168.34Z" style="fill:#fff"/><path d="M72.92,172.72H70.36v-8.79h2.56v1.38A4.46,4.46,0,0,1,74.26,164a3.32,3.32,0,0,1,1.62-.4,3.22,3.22,0,0,1,1.78.45,2.44,2.44,0,0,1,1,1.36A4.31,4.31,0,0,1,80,164.09a3.26,3.26,0,0,1,1.7-.46,3.39,3.39,0,0,1,1.59.35,2.43,2.43,0,0,1,1,1,2.89,2.89,0,0,1,.27.86,8.63,8.63,0,0,1,.08,1.44v5.41H82.1v-4.35a4.56,4.56,0,0,0-.33-2.13,1.24,1.24,0,0,0-1.14-.53,1.54,1.54,0,0,0-1.43.74,4.8,4.8,0,0,0-.45,2.4v3.87H76.2v-4.35a4.87,4.87,0,0,0-.3-2.09,1.11,1.11,0,0,0-1.06-.55,1.62,1.62,0,0,0-1.47.74,4.76,4.76,0,0,0-.45,2.38Z" style="fill:#fff"/><path d="M86.6,160.32a1.4,1.4,0,0,1,.44-1,1.43,1.43,0,0,1,1-.44,1.47,1.47,0,0,1,1.07.43,1.4,1.4,0,0,1,.44,1.06,1.44,1.44,0,0,1-.44,1.06,1.47,1.47,0,0,1-1.07.43,1.5,1.5,0,0,1-1.48-1.49Zm.22,12.4v-8.79h2.55v8.79Z" style="fill:#fff"/><path d="M90.73,171.18l2-1a1.14,1.14,0,0,0,.53.8,1.79,1.79,0,0,0,1.06.3,1.71,1.71,0,0,0,1-.23.7.7,0,0,0,.37-.63c0-.42-.43-.78-1.28-1.07l-.62-.22A6.29,6.29,0,0,1,91.59,168a2,2,0,0,1-.6-1.46,2.55,2.55,0,0,1,1-2.1,4.18,4.18,0,0,1,2.67-.79,4.24,4.24,0,0,1,2,.47A2.84,2.84,0,0,1,98,165.42l-1.87.93a1.35,1.35,0,0,0-.53-.75,1.63,1.63,0,0,0-.94-.26,1.56,1.56,0,0,0-.91.24.69.69,0,0,0-.35.61c0,.43.58.84,1.73,1.22l.32.1a5,5,0,0,1,2,1.1,2.21,2.21,0,0,1,.61,1.61,2.49,2.49,0,0,1-1,2.08,4.38,4.38,0,0,1-2.73.77,5,5,0,0,1-2.33-.5A2.59,2.59,0,0,1,90.73,171.18Z" style="fill:#fff"/><path d="M99.47,160.32a1.44,1.44,0,0,1,.44-1,1.5,1.5,0,0,1,2.11,0,1.41,1.41,0,0,1,.45,1.06,1.5,1.5,0,0,1-2.56,1.05A1.47,1.47,0,0,1,99.47,160.32Zm.23,12.4v-8.79h2.54v8.79Z" style="fill:#fff"/><path d="M113.71,168.36a4.52,4.52,0,0,1-1.38,3.37,5.29,5.29,0,0,1-7,0,4.49,4.49,0,0,1-1.39-3.37,4.53,4.53,0,0,1,1.4-3.38,5.28,5.28,0,0,1,7,0A4.51,4.51,0,0,1,113.71,168.36Zm-2.59,0a2.35,2.35,0,0,0-.63-1.72,2.28,2.28,0,0,0-1.69-.64,2.2,2.2,0,0,0-1.67.64,2.33,2.33,0,0,0-.62,1.72,2.36,2.36,0,0,0,.62,1.72,2.21,2.21,0,0,0,1.67.65,2.24,2.24,0,0,0,1.68-.65A2.33,2.33,0,0,0,111.12,168.34Zm.33-9-2.81,3.31h-1.27l1.76-3.31Z" style="fill:#fff"/><path d="M115.28,172.72v-8.79h2.5v1.38a4.68,4.68,0,0,1,1.48-1.27,3.83,3.83,0,0,1,1.76-.41,3.88,3.88,0,0,1,1.72.35,2.59,2.59,0,0,1,1.1,1.05,3,3,0,0,1,.28.83,9.85,9.85,0,0,1,.08,1.45v5.41h-2.55v-4.35a4.06,4.06,0,0,0-.38-2.14,1.5,1.5,0,0,0-1.29-.52,2.26,2.26,0,0,0-1,.22,2,2,0,0,0-.74.63,2.12,2.12,0,0,0-.34.71,5.36,5.36,0,0,0-.1,1.23v4.22Z" style="fill:#fff"/><path d="M131.75,172.72V159.6h2.91l5.81,7.64a5.08,5.08,0,0,1,.56.91c.2.39.4.85.62,1.38a11.5,11.5,0,0,1-.15-1.16c0-.38,0-.85,0-1.43V159.6h2.68v13.12h-2.75l-6-7.78a5.52,5.52,0,0,1-.55-.91c-.2-.39-.41-.86-.63-1.4a11.12,11.12,0,0,1,.15,1.14c0,.39,0,.87,0,1.46v7.49Z" style="fill:#fff"/><path d="M155.28,172.72h-2.47l0-1.26a3.24,3.24,0,0,1-1.25,1.22,3.72,3.72,0,0,1-1.78.39,3.45,3.45,0,0,1-2.81-1.3,6.08,6.08,0,0,1,0-6.89,3.63,3.63,0,0,1,2.92-1.25,3.31,3.31,0,0,1,1.72.44,3.49,3.49,0,0,1,1.24,1.31v-1.45h2.42ZM153,168.31a2.76,2.76,0,0,0-.6-1.87,2,2,0,0,0-1.6-.69,2.08,2.08,0,0,0-1.64.68,2.77,2.77,0,0,0-.6,1.88,2.71,2.71,0,0,0,.59,1.86,2.36,2.36,0,0,0,3.27,0A2.71,2.71,0,0,0,153,168.31Z" style="fill:#fff"/><path d="M163.8,172.46a3.78,3.78,0,0,1-1.1.46,4.92,4.92,0,0,1-1.25.15,4.56,4.56,0,0,1-3.39-1.32,4.68,4.68,0,0,1-1.31-3.44,4.53,4.53,0,0,1,1.32-3.37,4.66,4.66,0,0,1,3.42-1.31,5.31,5.31,0,0,1,1.25.14,4.19,4.19,0,0,1,1.06.42l0,2.56a3,3,0,0,0-.93-.64,3,3,0,0,0-1.12-.22,2.29,2.29,0,0,0-1.72.66,2.69,2.69,0,0,0,0,3.52,2.43,2.43,0,0,0,1.78.65,2.39,2.39,0,0,0,2-.92Z" style="fill:#fff"/><path d="M165.23,160.32a1.44,1.44,0,0,1,.44-1,1.47,1.47,0,0,1,1.05-.44,1.45,1.45,0,0,1,1.06.43,1.41,1.41,0,0,1,.45,1.06,1.5,1.5,0,0,1-1.51,1.49,1.5,1.5,0,0,1-1.49-1.49Zm.23,12.4v-8.79H168v8.79Z" style="fill:#fff"/><path d="M179.48,168.36a4.49,4.49,0,0,1-1.39,3.37,4.85,4.85,0,0,1-3.51,1.34,4.91,4.91,0,0,1-3.53-1.34,4.78,4.78,0,0,1,0-6.75,5.28,5.28,0,0,1,7,0A4.51,4.51,0,0,1,179.48,168.36Zm-2.6,0a2.35,2.35,0,0,0-.63-1.72,2.28,2.28,0,0,0-1.69-.64,2.2,2.2,0,0,0-1.67.64,2.37,2.37,0,0,0-.62,1.72,2.4,2.4,0,0,0,.62,1.72,2.21,2.21,0,0,0,1.67.65,2.25,2.25,0,0,0,1.69-.65A2.37,2.37,0,0,0,176.88,168.34Z" style="fill:#fff"/><path d="M181,172.72v-8.79h2.5v1.38A4.68,4.68,0,0,1,185,164a3.85,3.85,0,0,1,1.77-.41,3.8,3.8,0,0,1,1.71.35,2.59,2.59,0,0,1,1.1,1.05,3,3,0,0,1,.28.83,8.37,8.37,0,0,1,.09,1.45v5.41h-2.56v-4.35a4.09,4.09,0,0,0-.37-2.14,1.52,1.52,0,0,0-1.3-.52,2.26,2.26,0,0,0-1,.22,2.13,2.13,0,0,0-.74.63,1.93,1.93,0,0,0-.33.71,5.24,5.24,0,0,0-.11,1.23v4.22Z" style="fill:#fff"/><path d="M200.83,172.72h-2.47l0-1.26a3.31,3.31,0,0,1-1.25,1.22,3.75,3.75,0,0,1-1.78.39,3.48,3.48,0,0,1-2.82-1.3,5.23,5.23,0,0,1-1.07-3.43,5.13,5.13,0,0,1,1.06-3.46,3.63,3.63,0,0,1,2.92-1.25,3.33,3.33,0,0,1,1.72.44,3.49,3.49,0,0,1,1.24,1.31v-1.45h2.42Zm-2.33-4.41a2.76,2.76,0,0,0-.6-1.87,2,2,0,0,0-1.6-.69,2.08,2.08,0,0,0-1.64.68,2.77,2.77,0,0,0-.6,1.88,2.71,2.71,0,0,0,.59,1.86,2.06,2.06,0,0,0,1.63.66,2.08,2.08,0,0,0,1.64-.66A2.71,2.71,0,0,0,198.5,168.31Z" style="fill:#fff"/><path d="M203,172.72V158.83h2.54v13.89Z" style="fill:#fff"/><path d="M221.82,172.72h-2.48l0-1.26a3.38,3.38,0,0,1-1.25,1.22,3.75,3.75,0,0,1-1.78.39,3.45,3.45,0,0,1-2.82-1.3,5.18,5.18,0,0,1-1.07-3.43,5.24,5.24,0,0,1,1-3.48,3.63,3.63,0,0,1,2.93-1.24,3.1,3.1,0,0,1,1.68.44,4.43,4.43,0,0,1,1.37,1.39,5.17,5.17,0,0,1-.07-.72c0-.26,0-.56,0-.89v-5h2.42Zm-2.33-4.41a2.76,2.76,0,0,0-.6-1.87,2,2,0,0,0-1.61-.69,2.08,2.08,0,0,0-1.64.67,2.8,2.8,0,0,0-.59,1.88,2.7,2.7,0,0,0,.59,1.86,2,2,0,0,0,1.62.67,2.05,2.05,0,0,0,1.64-.66A2.71,2.71,0,0,0,219.49,168.31Z" style="fill:#fff"/><path d="M232.54,169h-6.61a2.28,2.28,0,0,0,.69,1.42,2.17,2.17,0,0,0,1.46.47,2.54,2.54,0,0,0,1.21-.27,2.17,2.17,0,0,0,.84-.81l2.07,1a4.69,4.69,0,0,1-1.74,1.72,5,5,0,0,1-2.43.56,4.51,4.51,0,0,1-3.38-1.27,5.2,5.2,0,0,1,.06-6.83,4.92,4.92,0,0,1,6.65-.09,4.68,4.68,0,0,1,1.22,3.42v.25C232.57,168.64,232.55,168.78,232.54,169ZM230,167.42a1.88,1.88,0,0,0-.6-1.26,2,2,0,0,0-1.36-.43,2.05,2.05,0,0,0-1.38.43,2,2,0,0,0-.66,1.26Z" style="fill:#fff"/><path d="M242.93,172.72l-4.85-13.12h3.1l2.56,8.18c0,.17.12.48.22.93s.21,1,.32,1.56c.08-.57.16-1.06.26-1.5s.18-.79.27-1.08l2.59-8.09h3.07l-4.89,13.12Z" style="fill:#fff"/><path d="M259.1,172.72h-2.47l0-1.26a3.24,3.24,0,0,1-1.25,1.22,3.75,3.75,0,0,1-1.78.39,3.47,3.47,0,0,1-2.82-1.3,6.13,6.13,0,0,1,0-6.89,3.63,3.63,0,0,1,2.93-1.25,3.36,3.36,0,0,1,1.72.44,3.57,3.57,0,0,1,1.24,1.31v-1.45h2.42Zm-2.33-4.41a2.76,2.76,0,0,0-.6-1.87,2,2,0,0,0-1.61-.69,2.05,2.05,0,0,0-1.63.68,2.77,2.77,0,0,0-.6,1.88,2.71,2.71,0,0,0,.59,1.86,2.06,2.06,0,0,0,1.63.66,2.08,2.08,0,0,0,1.64-.66A2.71,2.71,0,0,0,256.77,168.31Z" style="fill:#fff"/><path d="M261.23,172.72V158.83h2.55v13.89Z" style="fill:#fff"/><path d="M275.25,168.36a4.52,4.52,0,0,1-1.38,3.37,5.29,5.29,0,0,1-7,0,4.49,4.49,0,0,1-1.39-3.37,4.56,4.56,0,0,1,1.39-3.38,4.93,4.93,0,0,1,3.53-1.35,4.85,4.85,0,0,1,3.51,1.34A4.51,4.51,0,0,1,275.25,168.36Zm-2.6,0a2.39,2.39,0,0,0-.62-1.72,2.28,2.28,0,0,0-1.69-.64,2.2,2.2,0,0,0-1.67.64,2.33,2.33,0,0,0-.62,1.72,2.36,2.36,0,0,0,.62,1.72,2.21,2.21,0,0,0,1.67.65,2.24,2.24,0,0,0,1.68-.65A2.37,2.37,0,0,0,272.65,168.34Z" style="fill:#fff"/><path d="M279.28,166.19a4,4,0,0,1,1.11-1.92,2.61,2.61,0,0,1,1.78-.64,5.74,5.74,0,0,1,.8.09l.16,0-.38,2.74a3.18,3.18,0,0,0-.58-.17,3,3,0,0,0-.61-.06,2.09,2.09,0,0,0-1.68.6,3,3,0,0,0-.51,2v3.87h-2.56v-8.79h2.52Z" style="fill:#fff"/><path d="M292.51,169H285.9a2.33,2.33,0,0,0,.69,1.42,2.17,2.17,0,0,0,1.46.47,2.54,2.54,0,0,0,1.21-.27,2.27,2.27,0,0,0,.85-.81l2.06,1a4.69,4.69,0,0,1-1.74,1.72,5,5,0,0,1-2.43.56,4.51,4.51,0,0,1-3.38-1.27,5.2,5.2,0,0,1,.06-6.83,4.93,4.93,0,0,1,6.66-.09,4.72,4.72,0,0,1,1.21,3.42v.25C292.54,168.64,292.53,168.78,292.51,169ZM290,167.42a1.85,1.85,0,0,0-.61-1.26,2,2,0,0,0-1.35-.43,2.07,2.07,0,0,0-1.38.43,2,2,0,0,0-.66,1.26Z" style="fill:#fff"/><path d="M293.22,171.18l2-1a1.2,1.2,0,0,0,.53.8,1.82,1.82,0,0,0,1.07.3,1.73,1.73,0,0,0,1-.23.71.71,0,0,0,.36-.63c0-.42-.42-.78-1.27-1.07l-.63-.22a6.5,6.5,0,0,1-2.15-1.17,2,2,0,0,1-.59-1.46,2.56,2.56,0,0,1,1-2.1,4.22,4.22,0,0,1,2.67-.79,4.28,4.28,0,0,1,2,.47,2.84,2.84,0,0,1,1.26,1.35l-1.87.93a1.35,1.35,0,0,0-.53-.75,1.65,1.65,0,0,0-.94-.26,1.61,1.61,0,0,0-.92.24.71.71,0,0,0-.35.61c0,.43.58.84,1.74,1.22l.31.1a5,5,0,0,1,2.06,1.1,2.25,2.25,0,0,1,.61,1.61,2.47,2.47,0,0,1-1,2.08,4.34,4.34,0,0,1-2.73.77,5,5,0,0,1-2.32-.5A2.56,2.56,0,0,1,293.22,171.18Z" style="fill:#fff"/><path d="M101.16,196.18H99.71l-4.61-6.25h-.72v6.25H93.19V183.06H95.6a4.87,4.87,0,0,1,3.2.89,3.28,3.28,0,0,1,1.06,2.68,3.21,3.21,0,0,1-.91,2.42,3.48,3.48,0,0,1-2.5.88ZM94.38,184.1V189h1.2a3.76,3.76,0,0,0,2.33-.54,2.2,2.2,0,0,0,.66-1.81,2.4,2.4,0,0,0-.68-1.93,3.63,3.63,0,0,0-2.31-.57Z" style="fill:#fff"/><path d="M109.78,192.24h-6.32a3.93,3.93,0,0,0,.77,2.42,2.4,2.4,0,0,0,1.94.88,2.57,2.57,0,0,0,1.55-.48,3.54,3.54,0,0,0,1.1-1.44l1,.56a4.32,4.32,0,0,1-1.49,1.78,3.92,3.92,0,0,1-2.17.57,3.66,3.66,0,0,1-2.82-1.17,4.34,4.34,0,0,1-1.08-3.07,4.52,4.52,0,0,1,1.07-3.15,3.58,3.58,0,0,1,2.8-1.21,3.36,3.36,0,0,1,2.64,1.11,4.22,4.22,0,0,1,1,3Zm-1.31-1A2.28,2.28,0,0,0,106,189a2.41,2.41,0,0,0-1.69.63,2.53,2.53,0,0,0-.78,1.66Z" style="fill:#fff"/><path d="M112.62,200.18v-12h1.07v1.49a3.36,3.36,0,0,1,1.19-1.33,3.1,3.1,0,0,1,1.65-.46,3.45,3.45,0,0,1,2.71,1.18,5.34,5.34,0,0,1,0,6.25,3.34,3.34,0,0,1-2.67,1.17,3.2,3.2,0,0,1-1.7-.46,3.41,3.41,0,0,1-1.2-1.36v5.47Zm6.45-7.93a3.79,3.79,0,0,0-.71-2.42,2.32,2.32,0,0,0-1.94-.88,2.47,2.47,0,0,0-2,.85,3.55,3.55,0,0,0-.72,2.35,3.68,3.68,0,0,0,.77,2.44,2.57,2.57,0,0,0,2,.91,2.24,2.24,0,0,0,1.87-.86A3.76,3.76,0,0,0,119.07,192.25Z" style="fill:#fff"/><path d="M124.21,188.23v4a4.68,4.68,0,0,0,.51,2.55,2,2,0,0,0,1.75.75,2,2,0,0,0,1.75-.75,4.63,4.63,0,0,0,.53-2.55v-4h1.09v4.53a4.12,4.12,0,0,1-.85,2.81,3.76,3.76,0,0,1-5,0,4,4,0,0,1-.86-2.81v-4.53Zm1.08-1.28,1.92-3.14h1.46L126.14,187Z" style="fill:#fff"/><path d="M134.43,196.18h-1.1V182.29h1.1v7.39a3,3,0,0,1,1.13-1.3,3.3,3.3,0,0,1,1.75-.45,3.35,3.35,0,0,1,2.66,1.21,4.6,4.6,0,0,1,1,3.11,4.5,4.5,0,0,1-1,3.11,3.53,3.53,0,0,1-2.76,1.17,3.07,3.07,0,0,1-1.67-.45,3.1,3.1,0,0,1-1.1-1.35Zm5.34-3.89a3.78,3.78,0,0,0-.72-2.45,2.38,2.38,0,0,0-2-.89,2.42,2.42,0,0,0-2,.84,3.43,3.43,0,0,0-.7,2.29,3.89,3.89,0,0,0,.72,2.51,2.36,2.36,0,0,0,2,.91,2.45,2.45,0,0,0,2-.83A3.61,3.61,0,0,0,139.77,192.29Z" style="fill:#fff"/><path d="M145,196.18h-1.14V182.29H145Z" style="fill:#fff"/><path d="M148.38,185.13a.8.8,0,0,1,.25-.6.85.85,0,0,1,.6-.24.89.89,0,0,1,.61.24.84.84,0,0,1,.25.6.8.8,0,0,1-.25.6.82.82,0,0,1-.61.24.85.85,0,0,1-.61-.24A.83.83,0,0,1,148.38,185.13Zm.28,11.05v-8h1.14v8Z" style="fill:#fff"/><path d="M159.54,189.68a4.18,4.18,0,0,0-1.18-.58,4.68,4.68,0,0,0-1.29-.19,3.07,3.07,0,0,0-2.36,1,3.54,3.54,0,0,0-.88,2.52,3.09,3.09,0,0,0,.91,2.3,3.16,3.16,0,0,0,2.33.91,4,4,0,0,0,1.3-.23,5.19,5.19,0,0,0,1.3-.67v1.21a4.88,4.88,0,0,1-1.29.5,6.68,6.68,0,0,1-1.52.17,4,4,0,0,1-3-1.2,4.2,4.2,0,0,1-1.17-3.06,4.18,4.18,0,0,1,4.38-4.38,6.5,6.5,0,0,1,1.35.14,4.91,4.91,0,0,1,1.12.4Z" style="fill:#fff"/><path d="M168.15,196.18v-1.45a3.06,3.06,0,0,1-1.1,1.34,3.12,3.12,0,0,1-1.69.46,3.5,3.5,0,0,1-2.75-1.17,4.5,4.5,0,0,1-1.05-3.11,4.6,4.6,0,0,1,1-3.11,3.34,3.34,0,0,1,2.66-1.21,3.3,3.3,0,0,1,1.75.45,2.91,2.91,0,0,1,1.14,1.3v-1.45h1.1v8Zm-5.36-3.89a3.59,3.59,0,0,0,.7,2.38,2.44,2.44,0,0,0,2,.83,2.38,2.38,0,0,0,2-.91,4,4,0,0,0,.72-2.51,3.43,3.43,0,0,0-.71-2.29,2.46,2.46,0,0,0-2-.84,2.38,2.38,0,0,0-2,.89A3.73,3.73,0,0,0,162.79,192.29Z" style="fill:#fff"/><path d="M177,196.18l5.77-13.64,5.52,13.64H187l-1.68-4.44h-5.36l-1.74,4.44Zm3.36-5.47h4.57L182.65,185Z" style="fill:#fff"/><path d="M191.22,189.82a4.89,4.89,0,0,1,1.2-1.45,2.21,2.21,0,0,1,1.36-.44,2.42,2.42,0,0,1,.47,0l.48.12-.36,1-.37-.09-.38,0a2.09,2.09,0,0,0-1.7.93,3.74,3.74,0,0,0-.7,2.32v3.91h-1.1v-8h1.1Z" style="fill:#fff"/><path d="M203.44,188.23v6.57c0,1,0,1.84-.08,2.39a4.32,4.32,0,0,1-.28,1.23,2.72,2.72,0,0,1-1.27,1.32,4.7,4.7,0,0,1-2.15.44,4.2,4.2,0,0,1-2.47-.62,2.56,2.56,0,0,1-1.07-1.85h1.38a1.61,1.61,0,0,0,.7,1.11,2.8,2.8,0,0,0,1.55.37,3.11,3.11,0,0,0,1.32-.26,2,2,0,0,0,.89-.71,2.12,2.12,0,0,0,.27-.69,5.82,5.82,0,0,0,.09-1.2v-1.62A2.87,2.87,0,0,1,201.2,196a3.13,3.13,0,0,1-1.74.49,3.32,3.32,0,0,1-2.67-1.17,5.3,5.3,0,0,1,0-6.25,3.42,3.42,0,0,1,2.71-1.18,3.15,3.15,0,0,1,1.7.49,2.77,2.77,0,0,1,1.1,1.3v-1.49Zm-3.8.72a2.36,2.36,0,0,0-1.95.88,4.51,4.51,0,0,0,0,4.81,2.26,2.26,0,0,0,1.88.86,2.51,2.51,0,0,0,2-.91,3.64,3.64,0,0,0,.77-2.44,3.51,3.51,0,0,0-.72-2.35A2.42,2.42,0,0,0,199.64,189Z" style="fill:#fff"/><path d="M213.76,192.24h-6.32a3.93,3.93,0,0,0,.77,2.42,2.43,2.43,0,0,0,1.95.88,2.54,2.54,0,0,0,1.54-.48,3.64,3.64,0,0,0,1.11-1.44l1,.56a4.41,4.41,0,0,1-1.5,1.78,3.91,3.91,0,0,1-2.16.57,3.67,3.67,0,0,1-2.83-1.17,4.34,4.34,0,0,1-1.08-3.07,4.57,4.57,0,0,1,1.07-3.15,3.58,3.58,0,0,1,2.8-1.21,3.4,3.4,0,0,1,2.65,1.11,4.26,4.26,0,0,1,1,3Zm-1.31-1a2.43,2.43,0,0,0-.72-1.69A2.46,2.46,0,0,0,210,189a2.37,2.37,0,0,0-1.68.63,2.58,2.58,0,0,0-.79,1.66Z" style="fill:#fff"/><path d="M216.61,196.18v-8h1v1.23a3.16,3.16,0,0,1,1.19-1.14,3.23,3.23,0,0,1,1.61-.39,2.62,2.62,0,0,1,2.86,2.85v5.4H222.2v-4.9a2.6,2.6,0,0,0-.5-1.77,1.89,1.89,0,0,0-1.53-.58,2.23,2.23,0,0,0-1.86.75,3.74,3.74,0,0,0-.6,2.35v4.15Z" style="fill:#fff"/><path d="M227,189.17H225.5v-.94H227V185H228v3.26h1.59v.94H228v7H227Z" style="fill:#fff"/><path d="M231.62,185.13a.8.8,0,0,1,.25-.6.85.85,0,0,1,.6-.24.87.87,0,0,1,.61.24.8.8,0,0,1,.25.6.83.83,0,0,1-.24.6.86.86,0,0,1-.62.24.81.81,0,0,1-.6-.24A.8.8,0,0,1,231.62,185.13Zm.28,11.05v-8H233v8Z" style="fill:#fff"/><path d="M236.6,196.18v-8h1.05v1.23a3.16,3.16,0,0,1,1.19-1.14,3.29,3.29,0,0,1,1.62-.39,2.62,2.62,0,0,1,2.85,2.85v5.4H242.2v-4.9a2.65,2.65,0,0,0-.5-1.77,1.93,1.93,0,0,0-1.54-.58,2.24,2.24,0,0,0-1.86.75,3.74,3.74,0,0,0-.6,2.35v4.15Z" style="fill:#fff"/><path d="M252.59,196.18v-1.45a3,3,0,0,1-1.11,1.34,3.06,3.06,0,0,1-1.68.46,3.53,3.53,0,0,1-2.76-1.17,4.55,4.55,0,0,1-1-3.11,4.6,4.6,0,0,1,1-3.11,3.58,3.58,0,0,1,4.42-.76,2.91,2.91,0,0,1,1.14,1.3v-1.45h1.1v8Zm-5.36-3.89a3.65,3.65,0,0,0,.69,2.38,2.46,2.46,0,0,0,2,.83,2.4,2.4,0,0,0,2-.91,4,4,0,0,0,.72-2.51,3.38,3.38,0,0,0-.72-2.29,2.45,2.45,0,0,0-2-.84,2.4,2.4,0,0,0-2,.89A3.78,3.78,0,0,0,247.23,192.29Z" style="fill:#fff"/><polygon points="0 127.31 23.11 150.42 115.53 150.42 115.53 127.31 23.11 127.31 23.11 81.11 92.42 81.11 115.53 81.11 115.53 58 0 58 0 127.31" style="fill:#fff"/><polygon points="126.77 150.42 149.88 150.42 149.88 88.96 126.77 65.85 126.77 150.42" style="fill:#fff"/><polygon points="126.77 58 219.19 150.42 253.85 150.42 161.43 58 126.77 58" style="fill:#fff"/><polygon points="230.74 119.46 253.85 142.56 253.85 58 230.74 58 230.74 119.46" style="fill:#fff"/><polygon points="288.39 58 265.28 58 265.28 142.56 288.39 119.46 288.39 58" style="fill:#fff"/><polygon points="357.71 58 265.28 150.42 299.94 150.42 392.37 58 357.71 58" style="fill:#fff"/></svg>