<svg xmlns="http://www.w3.org/2000/svg" viewBox="0 0 390.79 226.55"><title>iconos-clientes</title><path d="M390.7,68.35c-.31-.6-1.3-.24-2-.25H2.07c-.68,0-1.67-.35-2,.25s.54,1.31.93,1.93c.54.88,1.15,1.71,1.75,2.54A116.48,116.48,0,0,1,16.29,96.74c3.57,8.81,6.3,17.91,9.73,26.76,4.54,11.79,10.94,22.33,20.21,31a6.62,6.62,0,0,0,4.93,2H339.63a6.59,6.59,0,0,0,4.92-2c9.28-8.69,15.67-19.23,20.22-31,3.42-8.85,6.16-18,9.73-26.76A116.48,116.48,0,0,1,388,72.82c.6-.83,1.21-1.66,1.75-2.54C390.16,69.66,391.08,69.07,390.7,68.35Zm-11.93,7.3A112.45,112.45,0,0,0,370.41,91c-3.94,8.77-6.72,18-10,27-4.23,11.77-9.95,22.62-19.13,31.37a4.43,4.43,0,0,1-3.37,1.4c-12.46-.06-24.93,0-37.4-.06H90.25c-12.47.05-24.94,0-37.4.06a4.43,4.43,0,0,1-3.37-1.4c-9.18-8.75-14.9-19.6-19.13-31.37-3.25-9-6-18.19-10-27A112.45,112.45,0,0,0,12,75.65c-.31-.47-.6-.94-1.15-1.8H379.92C379.37,74.71,379.08,75.18,378.77,75.65Z" style="fill:#fff;fill-rule:evenodd"/><path d="M108.69,128.34V121.2h6.72v-28h-6.72V86.06h42v13h-9v-5.9H127.63V103H137.8v7.14H127.63V121.2h7.23v7.14Z" style="fill:#fff"/><path d="M178.3,85.39q12.15,0,19.13,6.33a20.52,20.52,0,0,1,0,30.84q-7,6.3-19.11,6.3-12.6,0-19.35-6.49a20.47,20.47,0,0,1-6.76-15.24,20.09,20.09,0,0,1,6.95-15.4Q166.07,85.4,178.3,85.39Zm0,7.72a12.7,12.7,0,0,0-9.17,3.65q-3.76,3.66-3.76,10.7,0,6.24,3.71,10a12.48,12.48,0,0,0,9.22,3.74,12.71,12.71,0,0,0,9.18-3.66q3.78-3.66,3.78-10.56a14,14,0,0,0-3.6-10A12.29,12.29,0,0,0,178.3,93.11Z" style="fill:#fff"/><path d="M255.14,121.2v7.14h-14.3l-10.61-18.5h-5.38V121.2h5.88v7.14H206.18V121.2h6.45v-28h-6.45V86.06h28.33q8,0,11.53,3.64a11.46,11.46,0,0,1,3.53,8.22q0,7.2-8.14,10.52l7.64,12.76Zm-30.29-18.11H229q7.77,0,7.77-5A4.17,4.17,0,0,0,235,94.42a8.57,8.57,0,0,0-4.89-1.21h-5.3Z" style="fill:#fff"/><path d="M254.53,140.6v-7.67a14,14,0,0,0,3.52.52,5.1,5.1,0,0,0,4-1.4c.8-.93,1.21-2.57,1.21-4.92V93.21h-7V86.06h25.6v7.15h-6.38v34.31c0,4.71-1.27,8.18-3.8,10.45s-5.91,3.38-10.12,3.38A37.6,37.6,0,0,1,254.53,140.6Z" style="fill:#fff"/><path d="M330.38,121.2v7.14h-23.1V121.2h6l-2.23-7.26H298.88l-2.51,7.26h6.29v7.14H281.85V121.2h5.81l9.15-28h-6.25V86.06h30.67v7.15h-6.32l9.86,28Zm-21.24-13.46L305.22,95,301,107.74Z" style="fill:#fff"/><path d="M60.41,110v-3.42h3.22V93.15H60.41V89.73H72.78v3.42H69.49v13.43h6.66v-6.27h4.39V110Z" style="fill:#fff"/><path d="M106.84,106.58V110H95.77v-3.42h2.88l-1.07-3.48H91.74l-1.2,3.48h3V110h-10v-3.42h2.78l4.39-13.43h-3V89.73h14.71v3.42h-3l4.73,13.43Zm-10.18-6.46L94.78,94l-2,6.11Z" style="fill:#fff"/></svg>